<svg width="160" height="240" viewBox="0 0 160 240" fill="none" xmlns="http://www.w3.org/2000/svg">
<rect width="160" height="240" rx="15" fill="white"/>
<path d="M35 97.4039C35 67.9449 69.4116 57.0258 80 91.129C90.5884 57.0225 125 67.9415 125 97.4039C125 129.414 80 170 80 170C80 170 35 129.414 35 97.4039Z" fill="#BE1931"/>
<path d="M37.032 43.816C37.032 45.448 36.84 46.984 36.456 48.424C36.104 49.864 35.464 51.128 34.536 52.216C33.64 53.272 32.408 54.12 30.84 54.76C29.304 55.368 27.352 55.672 24.984 55.672C22.808 55.672 20.936 55.416 19.368 54.904C17.8 54.36 16.504 53.736 15.48 53.032L17.976 47.224C18.904 47.768 19.896 48.248 20.952 48.664C22.008 49.08 23.16 49.288 24.408 49.288C26.232 49.288 27.544 48.84 28.344 47.944C29.144 47.048 29.544 45.544 29.544 43.432V21.736H37.032V43.816Z" fill="black"/>
<path d="M122.968 196.184C122.968 194.552 123.16 193.016 123.544 191.576C123.896 190.136 124.536 188.872 125.464 187.784C126.36 186.728 127.592 185.88 129.16 185.24C130.696 184.632 132.648 184.328 135.016 184.328C137.192 184.328 139.064 184.584 140.632 185.096C142.2 185.64 143.496 186.264 144.52 186.968L142.024 192.776C141.096 192.232 140.104 191.752 139.048 191.336C137.992 190.92 136.84 190.712 135.592 190.712C133.768 190.712 132.456 191.16 131.656 192.056C130.856 192.952 130.456 194.456 130.456 196.568L130.456 218.264L122.968 218.264L122.968 196.184Z" fill="black"/>
</svg>
