<svg width="160" height="240" viewBox="0 0 160 240" fill="none" xmlns="http://www.w3.org/2000/svg">
<rect width="160" height="240" rx="15" fill="white"/>
<path d="M35 97.4039C35 67.9449 69.4116 57.0258 80 91.129C90.5884 57.0225 125 67.9415 125 97.4039C125 129.414 80 170 80 170C80 170 35 129.414 35 97.4039Z" fill="#BE1931"/>
<path d="M25.128 38.344C25.128 39.976 25.32 41.448 25.704 42.76C26.12 44.072 26.696 45.208 27.432 46.168C28.2 47.096 29.128 47.816 30.216 48.328C31.304 48.84 32.552 49.096 33.96 49.096C35.336 49.096 36.568 48.84 37.656 48.328C38.776 47.816 39.704 47.096 40.44 46.168C41.208 45.208 41.784 44.072 42.168 42.76C42.584 41.448 42.792 39.976 42.792 38.344C42.792 36.712 42.584 35.24 42.168 33.928C41.784 32.584 41.208 31.448 40.44 30.52C39.704 29.56 38.776 28.824 37.656 28.312C36.568 27.8 35.336 27.544 33.96 27.544C32.552 27.544 31.304 27.816 30.216 28.36C29.128 28.872 28.2 29.608 27.432 30.568C26.696 31.496 26.12 32.632 25.704 33.976C25.32 35.288 25.128 36.744 25.128 38.344ZM50.52 38.344C50.52 40.68 50.232 42.792 49.656 44.68C49.08 46.536 48.264 48.168 47.208 49.576C46.184 50.984 44.952 52.152 43.512 53.08C42.072 54.008 40.488 54.68 38.76 55.096C38.92 55.736 39.272 56.248 39.816 56.632C40.36 57.048 41.048 57.384 41.88 57.64C42.712 57.896 43.672 58.088 44.76 58.216C45.88 58.344 47.08 58.456 48.36 58.552L46.824 64.024C44.328 63.928 42.184 63.672 40.392 63.256C38.632 62.872 37.128 62.328 35.88 61.624C34.664 60.92 33.688 60.056 32.952 59.032C32.248 58.008 31.704 56.824 31.32 55.48C29.336 55.224 27.496 54.68 25.8 53.848C24.104 52.984 22.632 51.832 21.384 50.392C20.136 48.952 19.16 47.224 18.456 45.208C17.752 43.192 17.4 40.904 17.4 38.344C17.4 35.496 17.848 33 18.744 30.856C19.64 28.68 20.84 26.856 22.344 25.384C23.88 23.912 25.64 22.808 27.624 22.072C29.64 21.336 31.752 20.968 33.96 20.968C36.232 20.968 38.376 21.336 40.392 22.072C42.408 22.808 44.168 23.912 45.672 25.384C47.176 26.856 48.36 28.68 49.224 30.856C50.088 33 50.52 35.496 50.52 38.344Z" fill="black"/>
<path d="M134.872 201.656C134.872 200.024 134.68 198.552 134.296 197.24C133.88 195.928 133.304 194.792 132.568 193.832C131.8 192.904 130.872 192.184 129.784 191.672C128.696 191.16 127.448 190.904 126.04 190.904C124.664 190.904 123.432 191.16 122.344 191.672C121.224 192.184 120.296 192.904 119.56 193.832C118.792 194.792 118.216 195.928 117.832 197.24C117.416 198.552 117.208 200.024 117.208 201.656C117.208 203.288 117.416 204.76 117.832 206.072C118.216 207.416 118.792 208.552 119.56 209.48C120.296 210.44 121.224 211.176 122.344 211.688C123.432 212.2 124.664 212.456 126.04 212.456C127.448 212.456 128.696 212.184 129.784 211.64C130.872 211.128 131.8 210.392 132.568 209.432C133.304 208.504 133.88 207.368 134.296 206.024C134.68 204.712 134.872 203.256 134.872 201.656ZM109.48 201.656C109.48 199.32 109.768 197.208 110.344 195.32C110.92 193.464 111.736 191.832 112.792 190.424C113.816 189.016 115.048 187.848 116.488 186.92C117.928 185.992 119.512 185.32 121.24 184.904C121.08 184.264 120.728 183.752 120.184 183.368C119.64 182.952 118.952 182.616 118.12 182.36C117.288 182.104 116.328 181.912 115.24 181.784C114.12 181.656 112.92 181.544 111.64 181.448L113.176 175.976C115.672 176.072 117.816 176.328 119.608 176.744C121.368 177.128 122.872 177.672 124.12 178.376C125.336 179.08 126.312 179.944 127.048 180.968C127.752 181.992 128.296 183.176 128.68 184.52C130.664 184.776 132.504 185.32 134.2 186.152C135.896 187.016 137.368 188.168 138.616 189.608C139.864 191.048 140.84 192.776 141.544 194.792C142.248 196.808 142.6 199.096 142.6 201.656C142.6 204.504 142.152 207 141.256 209.144C140.36 211.32 139.16 213.144 137.656 214.616C136.12 216.088 134.36 217.192 132.376 217.928C130.36 218.664 128.248 219.032 126.04 219.032C123.768 219.032 121.624 218.664 119.608 217.928C117.592 217.192 115.832 216.088 114.328 214.616C112.824 213.144 111.64 211.32 110.776 209.144C109.912 207 109.48 204.504 109.48 201.656Z" fill="black"/>
</svg>
