<svg width="160" height="240" viewBox="0 0 160 240" fill="none" xmlns="http://www.w3.org/2000/svg">
<rect width="160" height="240" rx="15" fill="white"/>
<path d="M120 126.248C120 101.445 80 70 80 70C80 70 40 101.445 40 126.248C40 145.649 62.0961 154.66 74.505 140.697C73.5969 152.37 61.7474 161.621 50.2683 161.621H51.6197C49.379 161.621 47.5654 163.498 47.5654 165.81C47.5654 168.123 49.379 170 51.6197 170H108.38C110.618 170 112.435 168.123 112.435 165.81C112.435 163.498 110.618 161.621 108.38 161.621H109.732C98.2553 161.621 86.4004 152.37 85.495 140.697C97.9039 154.66 120 145.649 120 126.248Z" fill="#31373D"/>
<path d="M30.6714 30.472C29.4234 32.104 28.0954 33.88 26.6874 35.8C25.2794 37.72 24.0954 39.688 23.1354 41.704H30.6714V30.472ZM37.6794 21.736V41.704H41.2314V47.56H37.6794V55H30.6714V47.56H16.3194V42.328C17.0234 40.92 17.9034 39.336 18.9594 37.576C20.0154 35.784 21.1834 33.96 22.4634 32.104C23.7754 30.216 25.1514 28.376 26.5914 26.584C28.0314 24.792 29.4714 23.176 30.9114 21.736H37.6794Z" fill="black"/>
<path d="M129.329 209.528C130.577 207.896 131.905 206.12 133.313 204.2C134.721 202.28 135.905 200.312 136.865 198.296L129.329 198.296L129.329 209.528ZM122.321 218.264L122.321 198.296L118.769 198.296L118.769 192.44L122.321 192.44L122.321 185L129.329 185L129.329 192.44L143.681 192.44L143.681 197.672C142.977 199.08 142.097 200.664 141.041 202.424C139.985 204.216 138.817 206.04 137.537 207.896C136.225 209.784 134.849 211.624 133.409 213.416C131.969 215.208 130.529 216.824 129.089 218.264L122.321 218.264Z" fill="black"/>
</svg>
