<svg width="160" height="240" viewBox="0 0 160 240" fill="none" xmlns="http://www.w3.org/2000/svg">
<rect width="160" height="240" rx="15" fill="white"/>
<path d="M120 126.248C120 101.445 80 70 80 70C80 70 40 101.445 40 126.248C40 145.649 62.0961 154.66 74.505 140.697C73.5969 152.37 61.7474 161.621 50.2683 161.621H51.6197C49.379 161.621 47.5654 163.498 47.5654 165.81C47.5654 168.123 49.379 170 51.6197 170H108.38C110.618 170 112.435 168.123 112.435 165.81C112.435 163.498 110.618 161.621 108.38 161.621H109.732C98.2553 161.621 86.4004 152.37 85.495 140.697C97.9039 154.66 120 145.649 120 126.248Z" fill="#31373D"/>
<path d="M32.6394 45.208C32.6394 44.28 32.4314 43.464 32.0154 42.76C31.5994 42.024 30.8794 41.416 29.8554 40.936C28.8314 40.456 27.4554 40.088 25.7274 39.832C23.9994 39.576 21.8234 39.448 19.1994 39.448C19.5514 36.472 19.8394 33.448 20.0634 30.376C20.2874 27.304 20.4634 24.424 20.5914 21.736H38.5914V27.736H26.5914C26.5274 28.888 26.4474 30.008 26.3514 31.096C26.2874 32.152 26.2074 33.08 26.1114 33.88C30.7834 34.2 34.2234 35.304 36.4314 37.192C38.6714 39.048 39.7914 41.64 39.7914 44.968C39.7914 46.504 39.5194 47.928 38.9754 49.24C38.4314 50.552 37.6154 51.688 36.5274 52.648C35.4394 53.608 34.0634 54.36 32.3994 54.904C30.7674 55.448 28.8474 55.72 26.6394 55.72C25.7754 55.72 24.8634 55.656 23.9034 55.528C22.9754 55.432 22.0634 55.288 21.1674 55.096C20.3034 54.936 19.5194 54.76 18.8154 54.568C18.1114 54.376 17.5674 54.184 17.1834 53.992L18.4794 48.088C19.2794 48.44 20.3354 48.792 21.6474 49.144C22.9594 49.464 24.5274 49.624 26.3514 49.624C28.5594 49.624 30.1594 49.192 31.1514 48.328C32.1434 47.432 32.6394 46.392 32.6394 45.208Z" fill="black"/>
<path d="M127.361 194.792C127.361 195.72 127.569 196.536 127.985 197.24C128.401 197.976 129.121 198.584 130.145 199.064C131.169 199.544 132.545 199.912 134.273 200.168C136.001 200.424 138.177 200.552 140.801 200.552C140.449 203.528 140.161 206.552 139.937 209.624C139.713 212.696 139.537 215.576 139.409 218.264L121.409 218.264L121.409 212.264L133.409 212.264C133.473 211.112 133.553 209.992 133.649 208.904C133.713 207.848 133.793 206.92 133.889 206.12C129.217 205.8 125.777 204.696 123.569 202.808C121.329 200.952 120.209 198.36 120.209 195.032C120.209 193.496 120.481 192.072 121.025 190.76C121.569 189.448 122.385 188.312 123.473 187.352C124.561 186.392 125.937 185.64 127.601 185.096C129.233 184.552 131.153 184.28 133.361 184.28C134.225 184.28 135.137 184.344 136.097 184.472C137.025 184.568 137.937 184.712 138.833 184.904C139.697 185.064 140.481 185.24 141.185 185.432C141.889 185.624 142.433 185.816 142.817 186.008L141.521 191.912C140.721 191.56 139.665 191.208 138.353 190.856C137.041 190.536 135.473 190.376 133.649 190.376C131.441 190.376 129.841 190.808 128.849 191.672C127.857 192.568 127.361 193.608 127.361 194.792Z" fill="black"/>
</svg>
