<svg width="160" height="240" viewBox="0 0 160 240" fill="none" xmlns="http://www.w3.org/2000/svg">
<rect width="160" height="240" rx="15" fill="white"/>
<path d="M120 126.248C120 101.445 80 70 80 70C80 70 40 101.445 40 126.248C40 145.649 62.0961 154.66 74.505 140.697C73.5969 152.37 61.7474 161.621 50.2683 161.621H51.6197C49.379 161.621 47.5654 163.498 47.5654 165.81C47.5654 168.123 49.379 170 51.6197 170H108.38C110.618 170 112.435 168.123 112.435 165.81C112.435 163.498 110.618 161.621 108.38 161.621H109.732C98.2553 161.621 86.4004 152.37 85.495 140.697C97.9039 154.66 120 145.649 120 126.248Z" fill="#31373D"/>
<path d="M28.5114 39.352C27.8074 39.352 27.0554 39.416 26.2554 39.544C25.4554 39.672 24.8314 39.848 24.3834 40.072C24.3834 40.2 24.3674 40.392 24.3354 40.648C24.3354 40.904 24.3354 41.128 24.3354 41.32C24.3354 42.472 24.4154 43.56 24.5754 44.584C24.7354 45.608 25.0074 46.504 25.3914 47.272C25.7754 48.04 26.2874 48.648 26.9274 49.096C27.5674 49.512 28.3674 49.72 29.3274 49.72C30.1274 49.72 30.7994 49.56 31.3434 49.24C31.9194 48.888 32.3834 48.456 32.7354 47.944C33.1194 47.432 33.3914 46.872 33.5514 46.264C33.7434 45.624 33.8394 45.016 33.8394 44.44C33.8394 42.808 33.4234 41.56 32.5914 40.696C31.7914 39.8 30.4314 39.352 28.5114 39.352ZM29.4234 33.784C31.5034 33.784 33.2634 34.072 34.7034 34.648C36.1754 35.192 37.3754 35.944 38.3034 36.904C39.2314 37.864 39.9034 38.984 40.3194 40.264C40.7354 41.544 40.9434 42.904 40.9434 44.344C40.9434 45.624 40.7034 46.936 40.2234 48.28C39.7754 49.624 39.0714 50.84 38.1114 51.928C37.1834 53.016 35.9834 53.912 34.5114 54.616C33.0714 55.32 31.3594 55.672 29.3754 55.672C25.3754 55.672 22.3354 54.408 20.2554 51.88C18.1754 49.352 17.1354 45.864 17.1354 41.416C17.1354 38.216 17.6314 35.384 18.6234 32.92C19.6154 30.456 21.0234 28.392 22.8474 26.728C24.7034 25.032 26.9274 23.752 29.5194 22.888C32.1434 21.992 35.0874 21.528 38.3514 21.496C38.4154 22.488 38.4794 23.464 38.5434 24.424C38.6074 25.352 38.6714 26.328 38.7354 27.352C37.1034 27.384 35.5674 27.544 34.1274 27.832C32.7194 28.088 31.4234 28.504 30.2394 29.08C29.0874 29.656 28.0794 30.408 27.2154 31.336C26.3514 32.232 25.6794 33.336 25.1994 34.648C25.9034 34.328 26.6234 34.104 27.3594 33.976C28.0954 33.848 28.7834 33.784 29.4234 33.784Z" fill="black"/>
<path d="M131.489 200.648C132.193 200.648 132.945 200.584 133.745 200.456C134.545 200.328 135.169 200.152 135.617 199.928C135.617 199.8 135.633 199.608 135.665 199.352C135.665 199.096 135.665 198.872 135.665 198.68C135.665 197.528 135.585 196.44 135.425 195.416C135.265 194.392 134.993 193.496 134.609 192.728C134.225 191.96 133.713 191.352 133.073 190.904C132.433 190.488 131.633 190.28 130.673 190.28C129.873 190.28 129.201 190.44 128.657 190.76C128.081 191.112 127.617 191.544 127.265 192.056C126.881 192.568 126.609 193.128 126.449 193.736C126.257 194.376 126.161 194.984 126.161 195.56C126.161 197.192 126.577 198.44 127.409 199.304C128.209 200.2 129.569 200.648 131.489 200.648ZM130.577 206.216C128.497 206.216 126.737 205.928 125.297 205.352C123.825 204.808 122.625 204.056 121.697 203.096C120.769 202.136 120.097 201.016 119.681 199.736C119.265 198.456 119.057 197.096 119.057 195.656C119.057 194.376 119.297 193.064 119.777 191.72C120.225 190.376 120.929 189.16 121.889 188.072C122.817 186.984 124.017 186.088 125.489 185.384C126.929 184.68 128.641 184.328 130.625 184.328C134.625 184.328 137.665 185.592 139.745 188.12C141.825 190.648 142.865 194.136 142.865 198.584C142.865 201.784 142.369 204.616 141.377 207.08C140.385 209.544 138.977 211.608 137.153 213.272C135.297 214.968 133.073 216.248 130.481 217.112C127.857 218.008 124.913 218.472 121.649 218.504C121.585 217.512 121.521 216.536 121.457 215.576C121.393 214.648 121.329 213.672 121.265 212.648C122.897 212.616 124.433 212.456 125.873 212.168C127.281 211.912 128.577 211.496 129.761 210.92C130.913 210.344 131.921 209.592 132.785 208.664C133.649 207.768 134.321 206.664 134.801 205.352C134.097 205.672 133.377 205.896 132.641 206.024C131.905 206.152 131.217 206.216 130.577 206.216Z" fill="black"/>
</svg>
