<svg width="160" height="240" viewBox="0 0 160 240" fill="none" xmlns="http://www.w3.org/2000/svg">
<rect width="160" height="240" rx="15" fill="white"/>
<path d="M120 126.248C120 101.445 80 70 80 70C80 70 40 101.445 40 126.248C40 145.649 62.0961 154.66 74.505 140.697C73.5969 152.37 61.7474 161.621 50.2683 161.621H51.6197C49.379 161.621 47.5654 163.498 47.5654 165.81C47.5654 168.123 49.379 170 51.6197 170H108.38C110.618 170 112.435 168.123 112.435 165.81C112.435 163.498 110.618 161.621 108.38 161.621H109.732C98.2553 161.621 86.4004 152.37 85.495 140.697C97.9039 154.66 120 145.649 120 126.248Z" fill="#31373D"/>
<path d="M29.2314 37.144C29.9674 37.144 30.7354 37.08 31.5354 36.952C32.3354 36.792 32.9274 36.584 33.3114 36.328V35.896C33.3114 35.768 33.3114 35.64 33.3114 35.512C33.3434 35.384 33.3594 35.272 33.3594 35.176C33.3274 34.024 33.2314 32.952 33.0714 31.96C32.9114 30.936 32.6394 30.056 32.2554 29.32C31.8714 28.552 31.3434 27.96 30.6714 27.544C30.0314 27.096 29.2314 26.872 28.2714 26.872C27.5034 26.872 26.8314 27.032 26.2554 27.352C25.6794 27.672 25.2154 28.088 24.8634 28.6C24.5114 29.112 24.2394 29.672 24.0474 30.28C23.8874 30.888 23.8074 31.48 23.8074 32.056C23.8074 33.784 24.2234 35.064 25.0554 35.896C25.9194 36.728 27.3114 37.144 29.2314 37.144ZM32.7354 41.8C32.0634 42.12 31.3114 42.36 30.4794 42.52C29.6794 42.648 28.9914 42.712 28.4154 42.712C26.3354 42.712 24.5594 42.472 23.0874 41.992C21.6154 41.48 20.3994 40.776 19.4394 39.88C18.5114 38.952 17.8234 37.848 17.3754 36.568C16.9274 35.288 16.7034 33.88 16.7034 32.344C16.7034 31.064 16.9114 29.752 17.3274 28.408C17.7754 27.064 18.4634 25.848 19.3914 24.76C20.3194 23.64 21.4874 22.728 22.8954 22.024C24.3354 21.288 26.0634 20.92 28.0794 20.92C32.2074 20.92 35.3114 22.2 37.3914 24.76C39.5034 27.288 40.5594 30.936 40.5594 35.704C40.5594 38.84 40.1434 41.608 39.3114 44.008C38.5114 46.408 37.2474 48.424 35.5194 50.056C33.8234 51.688 31.6474 52.936 28.9914 53.8C26.3354 54.632 23.1834 55.064 19.5354 55.096C19.5034 54.072 19.4554 53.08 19.3914 52.12C19.3274 51.16 19.2634 50.168 19.1994 49.144C21.0234 49.112 22.6714 48.984 24.1434 48.76C25.6154 48.504 26.9114 48.104 28.0314 47.56C29.1514 46.984 30.0954 46.232 30.8634 45.304C31.6634 44.376 32.2874 43.208 32.7354 41.8Z" fill="black"/>
<path d="M130.769 202.856C130.033 202.856 129.265 202.92 128.465 203.048C127.665 203.208 127.073 203.416 126.689 203.672L126.689 204.104C126.689 204.232 126.689 204.36 126.689 204.488C126.657 204.616 126.641 204.728 126.641 204.824C126.673 205.976 126.769 207.048 126.929 208.04C127.089 209.064 127.361 209.944 127.745 210.68C128.129 211.448 128.657 212.04 129.329 212.456C129.969 212.904 130.769 213.128 131.729 213.128C132.497 213.128 133.169 212.968 133.745 212.648C134.321 212.328 134.785 211.912 135.137 211.4C135.489 210.888 135.761 210.328 135.953 209.72C136.113 209.112 136.193 208.52 136.193 207.944C136.193 206.216 135.777 204.936 134.945 204.104C134.081 203.272 132.689 202.856 130.769 202.856ZM127.265 198.2C127.937 197.88 128.689 197.64 129.521 197.48C130.321 197.352 131.009 197.288 131.585 197.288C133.665 197.288 135.441 197.528 136.913 198.008C138.385 198.52 139.601 199.224 140.561 200.12C141.489 201.048 142.177 202.152 142.625 203.432C143.073 204.712 143.297 206.12 143.297 207.656C143.297 208.936 143.089 210.248 142.673 211.592C142.225 212.936 141.537 214.152 140.609 215.24C139.681 216.36 138.513 217.272 137.105 217.976C135.665 218.712 133.937 219.08 131.921 219.08C127.793 219.08 124.689 217.8 122.609 215.24C120.497 212.712 119.441 209.064 119.441 204.296C119.441 201.16 119.857 198.392 120.689 195.992C121.489 193.592 122.753 191.576 124.481 189.944C126.177 188.312 128.353 187.064 131.009 186.2C133.665 185.368 136.817 184.936 140.465 184.904C140.497 185.928 140.545 186.92 140.609 187.88C140.673 188.84 140.737 189.832 140.801 190.856C138.977 190.888 137.329 191.016 135.857 191.24C134.385 191.496 133.089 191.896 131.969 192.44C130.849 193.016 129.905 193.768 129.137 194.696C128.337 195.624 127.713 196.792 127.265 198.2Z" fill="black"/>
</svg>
