<svg width="160" height="240" viewBox="0 0 160 240" fill="none" xmlns="http://www.w3.org/2000/svg">
<rect width="160" height="240" rx="15" fill="white"/>
<path d="M120 126.248C120 101.445 80 70 80 70C80 70 40 101.445 40 126.248C40 145.649 62.0961 154.66 74.505 140.697C73.5969 152.37 61.7474 161.621 50.2683 161.621H51.6197C49.379 161.621 47.5654 163.498 47.5654 165.81C47.5654 168.123 49.379 170 51.6197 170H108.38C110.618 170 112.435 168.123 112.435 165.81C112.435 163.498 110.618 161.621 108.38 161.621H109.732C98.2553 161.621 86.4004 152.37 85.495 140.697C97.9039 154.66 120 145.649 120 126.248Z" fill="#31373D"/>
<path d="M18.36 28.648C19.288 28.264 20.248 27.832 21.24 27.352C22.264 26.84 23.256 26.296 24.216 25.72C25.176 25.112 26.088 24.488 26.952 23.848C27.848 23.176 28.648 22.472 29.352 21.736H34.344V55H27.192V31.048C26.232 31.688 25.16 32.28 23.976 32.824C22.792 33.336 21.64 33.784 20.52 34.168L18.36 28.648ZM63.1133 38.296C63.1133 43.896 62.0413 48.2 59.8973 51.208C57.7853 54.184 54.8573 55.672 51.1133 55.672C47.3693 55.672 44.4253 54.184 42.2813 51.208C40.1693 48.2 39.1133 43.896 39.1133 38.296C39.1133 35.512 39.3853 33.048 39.9293 30.904C40.5053 28.76 41.3213 26.952 42.3773 25.48C43.4333 24.008 44.6973 22.888 46.1693 22.12C47.6413 21.352 49.2893 20.968 51.1133 20.968C54.8573 20.968 57.7853 22.472 59.8973 25.48C62.0413 28.456 63.1133 32.728 63.1133 38.296ZM55.8173 38.296C55.8173 36.632 55.7373 35.128 55.5773 33.784C55.4173 32.408 55.1613 31.224 54.8093 30.232C54.4573 29.24 53.9773 28.472 53.3693 27.928C52.7613 27.384 52.0093 27.112 51.1133 27.112C50.2173 27.112 49.4653 27.384 48.8573 27.928C48.2813 28.472 47.8013 29.24 47.4173 30.232C47.0653 31.224 46.8093 32.408 46.6493 33.784C46.4893 35.128 46.4093 36.632 46.4093 38.296C46.4093 39.96 46.4893 41.48 46.6493 42.856C46.8093 44.232 47.0653 45.416 47.4173 46.408C47.8013 47.4 48.2813 48.168 48.8573 48.712C49.4653 49.256 50.2173 49.528 51.1133 49.528C52.0093 49.528 52.7613 49.256 53.3693 48.712C53.9773 48.168 54.4573 47.4 54.8093 46.408C55.1613 45.416 55.4173 44.232 55.5773 42.856C55.7373 41.48 55.8173 39.96 55.8173 38.296Z" fill="black"/>
<path d="M141.64 211.352C140.712 211.736 139.752 212.168 138.76 212.648C137.736 213.16 136.744 213.704 135.784 214.28C134.824 214.888 133.912 215.512 133.048 216.152C132.152 216.824 131.352 217.528 130.648 218.264L125.656 218.264L125.656 185L132.808 185L132.808 208.952C133.768 208.312 134.84 207.72 136.024 207.176C137.208 206.664 138.36 206.216 139.48 205.832L141.64 211.352ZM96.8867 201.704C96.8868 196.104 97.9588 191.8 100.103 188.792C102.215 185.816 105.143 184.328 108.887 184.328C112.631 184.328 115.575 185.816 117.719 188.792C119.831 191.8 120.887 196.104 120.887 201.704C120.887 204.488 120.615 206.952 120.071 209.096C119.495 211.24 118.679 213.048 117.623 214.52C116.567 215.992 115.303 217.112 113.831 217.88C112.359 218.648 110.711 219.032 108.887 219.032C105.143 219.032 102.215 217.528 100.103 214.52C97.9587 211.544 96.8867 207.272 96.8867 201.704ZM104.183 201.704C104.183 203.368 104.263 204.872 104.423 206.216C104.583 207.592 104.839 208.776 105.191 209.768C105.543 210.76 106.023 211.528 106.631 212.072C107.239 212.616 107.991 212.888 108.887 212.888C109.783 212.888 110.535 212.616 111.143 212.072C111.719 211.528 112.199 210.76 112.583 209.768C112.935 208.776 113.191 207.592 113.351 206.216C113.511 204.872 113.591 203.368 113.591 201.704C113.591 200.04 113.511 198.52 113.351 197.144C113.191 195.768 112.935 194.584 112.583 193.592C112.199 192.6 111.719 191.832 111.143 191.288C110.535 190.744 109.783 190.472 108.887 190.472C107.991 190.472 107.239 190.744 106.631 191.288C106.023 191.832 105.543 192.6 105.191 193.592C104.839 194.584 104.583 195.768 104.423 197.144C104.263 198.52 104.183 200.04 104.183 201.704Z" fill="black"/>
</svg>
