<svg width="160" height="240" viewBox="0 0 160 240" fill="none" xmlns="http://www.w3.org/2000/svg">
<rect width="160" height="240" rx="15" fill="white"/>
<path d="M80.7732 169.298C80.0679 170.234 78.9313 170.234 78.2261 169.298L42.5289 121.701C41.8237 120.762 41.8237 119.24 42.5289 118.301L78.2261 70.7042C78.9313 69.7653 80.0679 69.7653 80.7732 70.7042L116.473 118.301C117.176 119.24 117.176 120.762 116.473 121.701L80.7732 169.298V169.298Z" fill="#BE1931"/>
<path d="M22.1754 55C22.3674 52.664 22.7674 50.232 23.3754 47.704C23.9834 45.176 24.7194 42.696 25.5834 40.264C26.4794 37.832 27.4714 35.544 28.5594 33.4C29.6474 31.224 30.7514 29.352 31.8714 27.784H17.4234V21.688H40.7034V26.872C39.6794 27.992 38.5434 29.544 37.2954 31.528C36.0794 33.512 34.9114 35.768 33.7914 38.296C32.7034 40.792 31.7434 43.48 30.9114 46.36C30.1114 49.24 29.6154 52.12 29.4234 55H22.1754Z" fill="black"/>
<path d="M137.825 185C137.633 187.336 137.233 189.768 136.625 192.296C136.017 194.824 135.281 197.304 134.417 199.736C133.521 202.168 132.529 204.456 131.441 206.6C130.353 208.776 129.249 210.648 128.129 212.216L142.577 212.216L142.577 218.312L119.297 218.312L119.297 213.128C120.321 212.008 121.457 210.456 122.705 208.472C123.921 206.488 125.089 204.232 126.209 201.704C127.297 199.208 128.257 196.52 129.089 193.64C129.889 190.76 130.385 187.88 130.577 185L137.825 185Z" fill="black"/>
</svg>
