<svg width="160" height="240" viewBox="0 0 160 240" fill="none" xmlns="http://www.w3.org/2000/svg">
<rect width="160" height="240" rx="15" fill="white"/>
<path d="M80.7732 169.298C80.0679 170.234 78.9313 170.234 78.2261 169.298L42.5289 121.701C41.8237 120.762 41.8237 119.24 42.5289 118.301L78.2261 70.7042C78.9313 69.7653 80.0679 69.7653 80.7732 70.7042L116.473 118.301C117.176 119.24 117.176 120.762 116.473 121.701L80.7732 169.298V169.298Z" fill="#BE1931"/>
<path d="M38.472 55C37.8 53.912 37 52.744 36.072 51.496C35.176 50.216 34.184 48.952 33.096 47.704C32.04 46.424 30.936 45.208 29.784 44.056C28.632 42.872 27.48 41.832 26.328 40.936V55H18.84V21.736H26.328V34.312C28.28 32.264 30.232 30.136 32.184 27.928C34.168 25.688 36.008 23.624 37.704 21.736H46.584C44.312 24.424 42.024 27.016 39.72 29.512C37.448 32.008 35.048 34.52 32.52 37.048C35.176 39.256 37.736 41.88 40.2 44.92C42.696 47.96 45.08 51.32 47.352 55H38.472Z" fill="black"/>
<path d="M121.528 185C122.2 186.088 123 187.256 123.928 188.504C124.824 189.784 125.816 191.048 126.904 192.296C127.96 193.576 129.064 194.792 130.216 195.944C131.368 197.128 132.52 198.168 133.672 199.064L133.672 185L141.16 185L141.16 218.264L133.672 218.264L133.672 205.688C131.72 207.736 129.768 209.864 127.816 212.072C125.832 214.312 123.992 216.376 122.296 218.264L113.416 218.264C115.688 215.576 117.976 212.984 120.28 210.488C122.552 207.992 124.952 205.48 127.48 202.952C124.824 200.744 122.264 198.12 119.8 195.08C117.304 192.04 114.92 188.68 112.648 185L121.528 185Z" fill="black"/>
</svg>
