<svg width="160" height="240" viewBox="0 0 160 240" fill="none" xmlns="http://www.w3.org/2000/svg">
<rect width="160" height="240" rx="15" fill="white"/>
<path d="M100.75 147.132C112.488 147.132 122 137.534 122 125.694C122 113.854 112.488 104.256 100.75 104.256C96.8995 104.256 93.2955 105.305 90.1817 107.114H89.5867C95.3865 103.635 99.2852 97.2668 99.2852 89.9634C99.2852 78.9384 90.4282 70 79.5 70C68.5718 70 59.712 78.9384 59.712 89.9634C59.712 97.2668 63.6107 103.635 69.4105 107.114H68.8212C65.7045 105.305 62.1033 104.256 58.25 104.256C46.5143 104.256 37 113.854 37 125.694C37 137.534 46.5143 147.132 58.25 147.132C64.3558 147.132 69.8412 144.52 73.72 140.364C72.5555 152.143 60.2475 161.425 48.3333 161.425H49.75C47.4012 161.425 45.5 163.346 45.5 165.712C45.5 168.079 47.4012 170 49.75 170H109.25C111.596 170 113.5 168.079 113.5 165.712C113.5 163.346 111.596 161.425 109.25 161.425H110.667C98.7525 161.425 86.4445 152.14 85.2828 140.361C89.156 144.52 94.647 147.132 100.75 147.132Z" fill="#31373D"/>
<path d="M41.3151 55C40.9631 53.848 40.5631 52.664 40.1151 51.448C39.6991 50.232 39.2831 49.016 38.8671 47.8H25.9071C25.4911 49.016 25.0591 50.232 24.6111 51.448C24.1951 52.664 23.8111 53.848 23.4591 55H15.6831C16.9311 51.416 18.1151 48.104 19.2351 45.064C20.3551 42.024 21.4431 39.16 22.4991 36.472C23.5871 33.784 24.6431 31.24 25.6671 28.84C26.7231 26.408 27.8111 24.04 28.9311 21.736H36.0831C37.1711 24.04 38.2431 26.408 39.2991 28.84C40.3551 31.24 41.4111 33.784 42.4671 36.472C43.5551 39.16 44.6591 42.024 45.7791 45.064C46.8991 48.104 48.0831 51.416 49.3311 55H41.3151ZM32.3391 29.272C32.1791 29.752 31.9391 30.408 31.6191 31.24C31.2991 32.072 30.9311 33.032 30.5151 34.12C30.0991 35.208 29.6351 36.408 29.1231 37.72C28.6431 39.032 28.1471 40.408 27.6351 41.848H37.0911C36.5791 40.408 36.0831 39.032 35.6031 37.72C35.1231 36.408 34.6591 35.208 34.2111 34.12C33.7951 33.032 33.4271 32.072 33.1071 31.24C32.7871 30.408 32.5311 29.752 32.3391 29.272Z" fill="black"/>
<path d="M118.685 185C119.037 186.152 119.437 187.336 119.885 188.552C120.301 189.768 120.717 190.984 121.133 192.2L134.093 192.2C134.509 190.984 134.941 189.768 135.389 188.552C135.805 187.336 136.189 186.152 136.541 185L144.317 185C143.069 188.584 141.885 191.896 140.765 194.936C139.645 197.976 138.557 200.84 137.501 203.528C136.413 206.216 135.357 208.76 134.333 211.16C133.277 213.592 132.189 215.96 131.069 218.264L123.917 218.264C122.829 215.96 121.757 213.592 120.701 211.16C119.645 208.76 118.589 206.216 117.533 203.528C116.445 200.84 115.341 197.976 114.221 194.936C113.101 191.896 111.917 188.584 110.669 185L118.685 185ZM127.661 210.728C127.821 210.248 128.061 209.592 128.381 208.76C128.701 207.928 129.069 206.968 129.485 205.88C129.901 204.792 130.365 203.592 130.877 202.28C131.357 200.968 131.853 199.592 132.365 198.152L122.909 198.152C123.421 199.592 123.917 200.968 124.397 202.28C124.877 203.592 125.341 204.792 125.789 205.88C126.205 206.968 126.573 207.928 126.893 208.76C127.213 209.592 127.469 210.248 127.661 210.728Z" fill="black"/>
</svg>
