<svg width="160" height="240" viewBox="0 0 160 240" fill="none" xmlns="http://www.w3.org/2000/svg">
<rect width="160" height="240" rx="15" fill="white"/>
<path d="M100.75 147.132C112.488 147.132 122 137.534 122 125.694C122 113.854 112.488 104.256 100.75 104.256C96.8995 104.256 93.2955 105.305 90.1817 107.114H89.5867C95.3865 103.635 99.2852 97.2668 99.2852 89.9634C99.2852 78.9384 90.4282 70 79.5 70C68.5718 70 59.712 78.9384 59.712 89.9634C59.712 97.2668 63.6107 103.635 69.4105 107.114H68.8212C65.7045 105.305 62.1033 104.256 58.25 104.256C46.5143 104.256 37 113.854 37 125.694C37 137.534 46.5143 147.132 58.25 147.132C64.3558 147.132 69.8412 144.52 73.72 140.364C72.5555 152.143 60.2475 161.425 48.3333 161.425H49.75C47.4012 161.425 45.5 163.346 45.5 165.712C45.5 168.079 47.4012 170 49.75 170H109.25C111.596 170 113.5 168.079 113.5 165.712C113.5 163.346 111.596 161.425 109.25 161.425H110.667C98.7525 161.425 86.4445 152.14 85.2828 140.361C89.156 144.52 94.647 147.132 100.75 147.132Z" fill="#31373D"/>
<path d="M39.1674 30.472C39.1674 31.688 38.9274 32.856 38.4474 33.976C37.9674 35.096 37.3434 36.184 36.5754 37.24C35.8074 38.264 34.9434 39.256 33.9834 40.216C33.0234 41.176 32.0794 42.088 31.1514 42.952C30.6714 43.4 30.1434 43.912 29.5674 44.488C29.0234 45.032 28.4954 45.592 27.9834 46.168C27.4714 46.744 27.0074 47.288 26.5914 47.8C26.2074 48.28 25.9674 48.68 25.8714 49H40.1754V55H17.9994C17.9354 54.648 17.9034 54.2 17.9034 53.656C17.9034 53.112 17.9034 52.728 17.9034 52.504C17.9034 50.968 18.1434 49.56 18.6234 48.28C19.1354 47 19.7914 45.816 20.5914 44.728C21.3914 43.608 22.2874 42.568 23.2794 41.608C24.3034 40.648 25.3114 39.688 26.3034 38.728C27.0714 37.992 27.7914 37.304 28.4634 36.664C29.1354 35.992 29.7274 35.352 30.2394 34.744C30.7514 34.104 31.1514 33.48 31.4394 32.872C31.7274 32.232 31.8714 31.592 31.8714 30.952C31.8714 29.544 31.4714 28.552 30.6714 27.976C29.8714 27.4 28.8794 27.112 27.6954 27.112C26.8314 27.112 26.0154 27.256 25.2474 27.544C24.5114 27.8 23.8234 28.12 23.1834 28.504C22.5754 28.856 22.0474 29.224 21.5994 29.608C21.1514 29.96 20.8154 30.248 20.5914 30.472L17.0394 25.48C18.4474 24.168 20.0794 23.096 21.9354 22.264C23.8234 21.4 25.8394 20.968 27.9834 20.968C29.9354 20.968 31.6154 21.192 33.0234 21.64C34.4314 22.088 35.5834 22.728 36.4794 23.56C37.4074 24.36 38.0794 25.352 38.4954 26.536C38.9434 27.688 39.1674 29 39.1674 30.472Z" fill="black"/>
<path d="M120.833 209.528C120.833 208.312 121.073 207.144 121.553 206.024C122.033 204.904 122.657 203.816 123.425 202.76C124.193 201.736 125.057 200.744 126.017 199.784C126.977 198.824 127.921 197.912 128.849 197.048C129.329 196.6 129.857 196.088 130.433 195.512C130.977 194.968 131.505 194.408 132.017 193.832C132.529 193.256 132.993 192.712 133.409 192.2C133.793 191.72 134.033 191.32 134.129 191L119.825 191L119.825 185L142.001 185C142.065 185.352 142.097 185.8 142.097 186.344C142.097 186.888 142.097 187.272 142.097 187.496C142.097 189.032 141.857 190.44 141.377 191.72C140.865 193 140.209 194.184 139.409 195.272C138.609 196.392 137.713 197.432 136.721 198.392C135.697 199.352 134.689 200.312 133.697 201.272C132.929 202.008 132.209 202.696 131.537 203.336C130.865 204.008 130.273 204.648 129.761 205.256C129.249 205.896 128.849 206.52 128.561 207.128C128.273 207.768 128.129 208.408 128.129 209.048C128.129 210.456 128.529 211.448 129.329 212.024C130.129 212.6 131.121 212.888 132.305 212.888C133.169 212.888 133.985 212.744 134.753 212.456C135.489 212.2 136.177 211.88 136.817 211.496C137.425 211.144 137.953 210.776 138.401 210.392C138.849 210.04 139.185 209.752 139.409 209.528L142.961 214.52C141.553 215.832 139.921 216.904 138.065 217.736C136.177 218.6 134.161 219.032 132.017 219.032C130.065 219.032 128.385 218.808 126.977 218.36C125.569 217.912 124.417 217.272 123.521 216.44C122.593 215.64 121.921 214.648 121.505 213.464C121.057 212.312 120.833 211 120.833 209.528Z" fill="black"/>
</svg>
