<svg width="160" height="240" viewBox="0 0 160 240" fill="none" xmlns="http://www.w3.org/2000/svg">
<rect width="160" height="240" rx="15" fill="white"/>
<path d="M100.75 147.132C112.488 147.132 122 137.534 122 125.694C122 113.854 112.488 104.256 100.75 104.256C96.8995 104.256 93.2955 105.305 90.1817 107.114H89.5867C95.3865 103.635 99.2852 97.2668 99.2852 89.9634C99.2852 78.9384 90.4282 70 79.5 70C68.5718 70 59.712 78.9384 59.712 89.9634C59.712 97.2668 63.6107 103.635 69.4105 107.114H68.8212C65.7045 105.305 62.1033 104.256 58.25 104.256C46.5143 104.256 37 113.854 37 125.694C37 137.534 46.5143 147.132 58.25 147.132C64.3558 147.132 69.8412 144.52 73.72 140.364C72.5555 152.143 60.2475 161.425 48.3333 161.425H49.75C47.4012 161.425 45.5 163.346 45.5 165.712C45.5 168.079 47.4012 170 49.75 170H109.25C111.596 170 113.5 168.079 113.5 165.712C113.5 163.346 111.596 161.425 109.25 161.425H110.667C98.7525 161.425 86.4445 152.14 85.2828 140.361C89.156 144.52 94.647 147.132 100.75 147.132Z" fill="#31373D"/>
<path d="M26.3034 55.72C25.4394 55.72 24.5274 55.656 23.5674 55.528C22.6074 55.432 21.6794 55.288 20.7834 55.096C19.8874 54.904 19.0714 54.696 18.3354 54.472C17.5994 54.248 17.0234 54.04 16.6074 53.848L17.9994 47.896C18.8314 48.248 19.8874 48.632 21.1674 49.048C22.4794 49.432 24.0954 49.624 26.0154 49.624C28.2234 49.624 29.8394 49.208 30.8634 48.376C31.8874 47.544 32.3994 46.424 32.3994 45.016C32.3994 44.152 32.2074 43.432 31.8234 42.856C31.4714 42.248 30.9754 41.768 30.3354 41.416C29.6954 41.032 28.9274 40.776 28.0314 40.648C27.1674 40.488 26.2394 40.408 25.2474 40.408H22.4634V34.648H25.6314C26.3354 34.648 27.0074 34.584 27.6474 34.456C28.3194 34.328 28.9114 34.12 29.4234 33.832C29.9354 33.512 30.3354 33.096 30.6234 32.584C30.9434 32.04 31.1034 31.368 31.1034 30.568C31.1034 29.96 30.9754 29.432 30.7194 28.984C30.4634 28.536 30.1274 28.168 29.7114 27.88C29.3274 27.592 28.8634 27.384 28.3194 27.256C27.8074 27.096 27.2794 27.016 26.7354 27.016C25.3594 27.016 24.0794 27.224 22.8954 27.64C21.7434 28.056 20.6874 28.568 19.7274 29.176L17.1834 23.944C17.6954 23.624 18.2874 23.288 18.9594 22.936C19.6634 22.584 20.4314 22.264 21.2634 21.976C22.0954 21.688 22.9754 21.448 23.9034 21.256C24.8634 21.064 25.8714 20.968 26.9274 20.968C28.8794 20.968 30.5594 21.208 31.9674 21.688C33.4074 22.136 34.5914 22.792 35.5194 23.656C36.4474 24.488 37.1354 25.48 37.5834 26.632C38.0314 27.752 38.2554 28.984 38.2554 30.328C38.2554 31.64 37.8874 32.92 37.1514 34.168C36.4154 35.384 35.4234 36.312 34.1754 36.952C35.9034 37.656 37.2314 38.712 38.1594 40.12C39.1194 41.496 39.5994 43.16 39.5994 45.112C39.5994 46.648 39.3434 48.072 38.8314 49.384C38.3194 50.664 37.5194 51.784 36.4314 52.744C35.3434 53.672 33.9514 54.408 32.2554 54.952C30.5914 55.464 28.6074 55.72 26.3034 55.72Z" fill="black"/>
<path d="M133.697 184.28C134.561 184.28 135.473 184.344 136.433 184.472C137.393 184.568 138.321 184.712 139.217 184.904C140.113 185.096 140.929 185.304 141.665 185.528C142.401 185.752 142.977 185.96 143.393 186.152L142.001 192.104C141.169 191.752 140.113 191.368 138.833 190.952C137.521 190.568 135.905 190.376 133.985 190.376C131.777 190.376 130.161 190.792 129.137 191.624C128.113 192.456 127.601 193.576 127.601 194.984C127.601 195.848 127.793 196.568 128.177 197.144C128.529 197.752 129.025 198.232 129.665 198.584C130.305 198.968 131.073 199.224 131.969 199.352C132.833 199.512 133.761 199.592 134.753 199.592L137.537 199.592L137.537 205.352L134.369 205.352C133.665 205.352 132.993 205.416 132.353 205.544C131.681 205.672 131.089 205.88 130.577 206.168C130.065 206.488 129.665 206.904 129.377 207.416C129.057 207.96 128.897 208.632 128.897 209.432C128.897 210.04 129.025 210.568 129.281 211.016C129.537 211.464 129.873 211.832 130.289 212.12C130.673 212.408 131.137 212.616 131.681 212.744C132.193 212.904 132.721 212.984 133.265 212.984C134.641 212.984 135.921 212.776 137.105 212.36C138.257 211.944 139.313 211.432 140.273 210.824L142.817 216.056C142.305 216.376 141.713 216.712 141.041 217.064C140.337 217.416 139.569 217.736 138.737 218.024C137.905 218.312 137.025 218.552 136.097 218.744C135.137 218.936 134.129 219.032 133.073 219.032C131.121 219.032 129.441 218.792 128.033 218.312C126.593 217.864 125.409 217.208 124.481 216.344C123.553 215.512 122.865 214.52 122.417 213.368C121.969 212.248 121.745 211.016 121.745 209.672C121.745 208.36 122.113 207.08 122.849 205.832C123.585 204.616 124.577 203.688 125.825 203.048C124.097 202.344 122.769 201.288 121.841 199.88C120.881 198.504 120.401 196.84 120.401 194.888C120.401 193.352 120.657 191.928 121.169 190.616C121.681 189.336 122.481 188.216 123.569 187.256C124.657 186.328 126.049 185.592 127.745 185.048C129.409 184.536 131.393 184.28 133.697 184.28Z" fill="black"/>
</svg>
