<svg width="160" height="240" viewBox="0 0 160 240" fill="none" xmlns="http://www.w3.org/2000/svg">
<rect width="160" height="240" rx="15" fill="white"/>
<path d="M100.75 147.132C112.488 147.132 122 137.534 122 125.694C122 113.854 112.488 104.256 100.75 104.256C96.8995 104.256 93.2955 105.305 90.1817 107.114H89.5867C95.3865 103.635 99.2852 97.2668 99.2852 89.9634C99.2852 78.9384 90.4282 70 79.5 70C68.5718 70 59.712 78.9384 59.712 89.9634C59.712 97.2668 63.6107 103.635 69.4105 107.114H68.8212C65.7045 105.305 62.1033 104.256 58.25 104.256C46.5143 104.256 37 113.854 37 125.694C37 137.534 46.5143 147.132 58.25 147.132C64.3558 147.132 69.8412 144.52 73.72 140.364C72.5555 152.143 60.2475 161.425 48.3333 161.425H49.75C47.4012 161.425 45.5 163.346 45.5 165.712C45.5 168.079 47.4012 170 49.75 170H109.25C111.596 170 113.5 168.079 113.5 165.712C113.5 163.346 111.596 161.425 109.25 161.425H110.667C98.7525 161.425 86.4445 152.14 85.2828 140.361C89.156 144.52 94.647 147.132 100.75 147.132Z" fill="#31373D"/>
<path d="M30.6714 30.472C29.4234 32.104 28.0954 33.88 26.6874 35.8C25.2794 37.72 24.0954 39.688 23.1354 41.704H30.6714V30.472ZM37.6794 21.736V41.704H41.2314V47.56H37.6794V55H30.6714V47.56H16.3194V42.328C17.0234 40.92 17.9034 39.336 18.9594 37.576C20.0154 35.784 21.1834 33.96 22.4634 32.104C23.7754 30.216 25.1514 28.376 26.5914 26.584C28.0314 24.792 29.4714 23.176 30.9114 21.736H37.6794Z" fill="black"/>
<path d="M129.329 209.528C130.577 207.896 131.905 206.12 133.313 204.2C134.721 202.28 135.905 200.312 136.865 198.296L129.329 198.296L129.329 209.528ZM122.321 218.264L122.321 198.296L118.769 198.296L118.769 192.44L122.321 192.44L122.321 185L129.329 185L129.329 192.44L143.681 192.44L143.681 197.672C142.977 199.08 142.097 200.664 141.041 202.424C139.985 204.216 138.817 206.04 137.537 207.896C136.225 209.784 134.849 211.624 133.409 213.416C131.969 215.208 130.529 216.824 129.089 218.264L122.321 218.264Z" fill="black"/>
</svg>
