<svg width="160" height="240" viewBox="0 0 160 240" fill="none" xmlns="http://www.w3.org/2000/svg">
<rect width="160" height="240" rx="15" fill="white"/>
<path d="M100.75 147.132C112.488 147.132 122 137.534 122 125.694C122 113.854 112.488 104.256 100.75 104.256C96.8995 104.256 93.2955 105.305 90.1817 107.114H89.5867C95.3865 103.635 99.2852 97.2668 99.2852 89.9634C99.2852 78.9384 90.4282 70 79.5 70C68.5718 70 59.712 78.9384 59.712 89.9634C59.712 97.2668 63.6107 103.635 69.4105 107.114H68.8212C65.7045 105.305 62.1033 104.256 58.25 104.256C46.5143 104.256 37 113.854 37 125.694C37 137.534 46.5143 147.132 58.25 147.132C64.3558 147.132 69.8412 144.52 73.72 140.364C72.5555 152.143 60.2475 161.425 48.3333 161.425H49.75C47.4012 161.425 45.5 163.346 45.5 165.712C45.5 168.079 47.4012 170 49.75 170H109.25C111.596 170 113.5 168.079 113.5 165.712C113.5 163.346 111.596 161.425 109.25 161.425H110.667C98.7525 161.425 86.4445 152.14 85.2828 140.361C89.156 144.52 94.647 147.132 100.75 147.132Z" fill="#31373D"/>
<path d="M22.1754 55C22.3674 52.664 22.7674 50.232 23.3754 47.704C23.9834 45.176 24.7194 42.696 25.5834 40.264C26.4794 37.832 27.4714 35.544 28.5594 33.4C29.6474 31.224 30.7514 29.352 31.8714 27.784H17.4234V21.688H40.7034V26.872C39.6794 27.992 38.5434 29.544 37.2954 31.528C36.0794 33.512 34.9114 35.768 33.7914 38.296C32.7034 40.792 31.7434 43.48 30.9114 46.36C30.1114 49.24 29.6154 52.12 29.4234 55H22.1754Z" fill="black"/>
<path d="M137.825 185C137.633 187.336 137.233 189.768 136.625 192.296C136.017 194.824 135.281 197.304 134.417 199.736C133.521 202.168 132.529 204.456 131.441 206.6C130.353 208.776 129.249 210.648 128.129 212.216L142.577 212.216L142.577 218.312L119.297 218.312L119.297 213.128C120.321 212.008 121.457 210.456 122.705 208.472C123.921 206.488 125.089 204.232 126.209 201.704C127.297 199.208 128.257 196.52 129.089 193.64C129.889 190.76 130.385 187.88 130.577 185L137.825 185Z" fill="black"/>
</svg>
