<svg width="160" height="240" viewBox="0 0 160 240" fill="none" xmlns="http://www.w3.org/2000/svg">
<rect width="160" height="240" rx="15" fill="white"/>
<path d="M100.75 147.132C112.488 147.132 122 137.534 122 125.694C122 113.854 112.488 104.256 100.75 104.256C96.8995 104.256 93.2955 105.305 90.1817 107.114H89.5867C95.3865 103.635 99.2852 97.2668 99.2852 89.9634C99.2852 78.9384 90.4282 70 79.5 70C68.5718 70 59.712 78.9384 59.712 89.9634C59.712 97.2668 63.6107 103.635 69.4105 107.114H68.8212C65.7045 105.305 62.1033 104.256 58.25 104.256C46.5143 104.256 37 113.854 37 125.694C37 137.534 46.5143 147.132 58.25 147.132C64.3558 147.132 69.8412 144.52 73.72 140.364C72.5555 152.143 60.2475 161.425 48.3333 161.425H49.75C47.4012 161.425 45.5 163.346 45.5 165.712C45.5 168.079 47.4012 170 49.75 170H109.25C111.596 170 113.5 168.079 113.5 165.712C113.5 163.346 111.596 161.425 109.25 161.425H110.667C98.7525 161.425 86.4445 152.14 85.2828 140.361C89.156 144.52 94.647 147.132 100.75 147.132Z" fill="#31373D"/>
<path d="M40.7994 45.736C40.7994 47.176 40.5434 48.504 40.0314 49.72C39.5514 50.904 38.8154 51.944 37.8234 52.84C36.8314 53.736 35.5834 54.44 34.0794 54.952C32.6074 55.432 30.8954 55.672 28.9434 55.672C26.7034 55.672 24.8314 55.368 23.3274 54.76C21.8554 54.12 20.6554 53.336 19.7274 52.408C18.8314 51.48 18.1914 50.472 17.8074 49.384C17.4234 48.264 17.2314 47.24 17.2314 46.312C17.2314 45.352 17.3594 44.472 17.6154 43.672C17.8714 42.872 18.2234 42.152 18.6714 41.512C19.1194 40.84 19.6154 40.232 20.1594 39.688C20.7354 39.144 21.3434 38.632 21.9834 38.152C20.6074 37.032 19.5834 35.928 18.9114 34.84C18.2714 33.752 17.9514 32.36 17.9514 30.664C17.9514 29.384 18.2074 28.152 18.7194 26.968C19.2634 25.784 20.0154 24.76 20.9754 23.896C21.9354 23 23.0874 22.296 24.4314 21.784C25.8074 21.24 27.3274 20.968 28.9914 20.968C30.9434 20.968 32.6074 21.256 33.9834 21.832C35.3914 22.376 36.5434 23.08 37.4394 23.944C38.3354 24.808 38.9754 25.784 39.3594 26.872C39.7754 27.928 39.9834 28.984 39.9834 30.04C39.9834 31.576 39.5674 33.016 38.7354 34.36C37.9354 35.672 36.9274 36.712 35.7114 37.48C37.5354 38.664 38.8314 39.912 39.5994 41.224C40.3994 42.504 40.7994 44.008 40.7994 45.736ZM24.1914 46.024C24.1914 46.408 24.2714 46.84 24.4314 47.32C24.6234 47.768 24.9114 48.184 25.2954 48.568C25.6794 48.952 26.1754 49.272 26.7834 49.528C27.3914 49.784 28.1274 49.912 28.9914 49.912C30.6554 49.912 31.8714 49.512 32.6394 48.712C33.4074 47.912 33.7914 47.016 33.7914 46.024C33.7914 45.288 33.6154 44.632 33.2634 44.056C32.9434 43.48 32.4954 42.984 31.9194 42.568C31.3434 42.12 30.6554 41.736 29.8554 41.416C29.0874 41.064 28.2554 40.744 27.3594 40.456C26.4634 41.128 25.7114 41.912 25.1034 42.808C24.4954 43.704 24.1914 44.776 24.1914 46.024ZM33.0714 30.232C33.0714 29.88 32.9914 29.512 32.8314 29.128C32.7034 28.712 32.4634 28.328 32.1114 27.976C31.7914 27.624 31.3754 27.336 30.8634 27.112C30.3514 26.856 29.7274 26.728 28.9914 26.728C28.2874 26.728 27.6794 26.84 27.1674 27.064C26.6554 27.288 26.2234 27.592 25.8714 27.976C25.5514 28.328 25.3114 28.712 25.1514 29.128C24.9914 29.544 24.9114 29.944 24.9114 30.328C24.9114 31.352 25.2794 32.312 26.0154 33.208C26.7834 34.104 28.0794 34.872 29.9034 35.512C30.9274 34.872 31.7114 34.136 32.2554 33.304C32.7994 32.472 33.0714 31.448 33.0714 30.232Z" fill="black"/>
<path d="M119.201 194.264C119.201 192.824 119.457 191.496 119.969 190.28C120.449 189.096 121.185 188.056 122.177 187.16C123.169 186.264 124.417 185.56 125.921 185.048C127.393 184.568 129.105 184.328 131.057 184.328C133.297 184.328 135.169 184.632 136.673 185.24C138.145 185.88 139.345 186.664 140.273 187.592C141.169 188.52 141.809 189.528 142.193 190.616C142.577 191.736 142.769 192.76 142.769 193.688C142.769 194.648 142.641 195.528 142.385 196.328C142.129 197.128 141.777 197.848 141.329 198.488C140.881 199.16 140.385 199.768 139.841 200.312C139.265 200.856 138.657 201.368 138.017 201.848C139.393 202.968 140.417 204.072 141.089 205.16C141.729 206.248 142.049 207.64 142.049 209.336C142.049 210.616 141.793 211.848 141.281 213.032C140.737 214.216 139.985 215.24 139.025 216.104C138.065 217 136.913 217.704 135.569 218.216C134.193 218.76 132.673 219.032 131.009 219.032C129.057 219.032 127.393 218.744 126.017 218.168C124.609 217.624 123.457 216.92 122.561 216.056C121.665 215.192 121.025 214.216 120.641 213.128C120.225 212.072 120.017 211.016 120.017 209.96C120.017 208.424 120.433 206.984 121.265 205.64C122.065 204.328 123.073 203.288 124.289 202.52C122.465 201.336 121.169 200.088 120.401 198.776C119.601 197.496 119.201 195.992 119.201 194.264ZM135.809 193.976C135.809 193.592 135.729 193.16 135.569 192.68C135.377 192.232 135.089 191.816 134.705 191.432C134.321 191.048 133.825 190.728 133.217 190.472C132.609 190.216 131.873 190.088 131.009 190.088C129.345 190.088 128.129 190.488 127.361 191.288C126.593 192.088 126.209 192.984 126.209 193.976C126.209 194.712 126.385 195.368 126.737 195.944C127.057 196.52 127.505 197.016 128.081 197.432C128.657 197.88 129.345 198.264 130.145 198.584C130.913 198.936 131.745 199.256 132.641 199.544C133.537 198.872 134.289 198.088 134.897 197.192C135.505 196.296 135.809 195.224 135.809 193.976ZM126.929 209.768C126.929 210.12 127.009 210.488 127.169 210.872C127.297 211.288 127.537 211.672 127.889 212.024C128.209 212.376 128.625 212.664 129.137 212.888C129.649 213.144 130.273 213.272 131.009 213.272C131.713 213.272 132.321 213.16 132.833 212.936C133.345 212.712 133.777 212.408 134.129 212.024C134.449 211.672 134.689 211.288 134.849 210.872C135.009 210.456 135.089 210.056 135.089 209.672C135.089 208.648 134.721 207.688 133.985 206.792C133.217 205.896 131.921 205.128 130.097 204.488C129.073 205.128 128.289 205.864 127.745 206.696C127.201 207.528 126.929 208.552 126.929 209.768Z" fill="black"/>
</svg>
