<svg width="160" height="240" viewBox="0 0 160 240" fill="none" xmlns="http://www.w3.org/2000/svg">
<rect width="160" height="240" rx="15" fill="white"/>
<path d="M100.75 147.132C112.488 147.132 122 137.534 122 125.694C122 113.854 112.488 104.256 100.75 104.256C96.8995 104.256 93.2955 105.305 90.1817 107.114H89.5867C95.3865 103.635 99.2852 97.2668 99.2852 89.9634C99.2852 78.9384 90.4282 70 79.5 70C68.5718 70 59.712 78.9384 59.712 89.9634C59.712 97.2668 63.6107 103.635 69.4105 107.114H68.8212C65.7045 105.305 62.1033 104.256 58.25 104.256C46.5143 104.256 37 113.854 37 125.694C37 137.534 46.5143 147.132 58.25 147.132C64.3558 147.132 69.8412 144.52 73.72 140.364C72.5555 152.143 60.2475 161.425 48.3333 161.425H49.75C47.4012 161.425 45.5 163.346 45.5 165.712C45.5 168.079 47.4012 170 49.75 170H109.25C111.596 170 113.5 168.079 113.5 165.712C113.5 163.346 111.596 161.425 109.25 161.425H110.667C98.7525 161.425 86.4445 152.14 85.2828 140.361C89.156 144.52 94.647 147.132 100.75 147.132Z" fill="#31373D"/>
<path d="M37.032 43.816C37.032 45.448 36.84 46.984 36.456 48.424C36.104 49.864 35.464 51.128 34.536 52.216C33.64 53.272 32.408 54.12 30.84 54.76C29.304 55.368 27.352 55.672 24.984 55.672C22.808 55.672 20.936 55.416 19.368 54.904C17.8 54.36 16.504 53.736 15.48 53.032L17.976 47.224C18.904 47.768 19.896 48.248 20.952 48.664C22.008 49.08 23.16 49.288 24.408 49.288C26.232 49.288 27.544 48.84 28.344 47.944C29.144 47.048 29.544 45.544 29.544 43.432V21.736H37.032V43.816Z" fill="black"/>
<path d="M122.968 196.184C122.968 194.552 123.16 193.016 123.544 191.576C123.896 190.136 124.536 188.872 125.464 187.784C126.36 186.728 127.592 185.88 129.16 185.24C130.696 184.632 132.648 184.328 135.016 184.328C137.192 184.328 139.064 184.584 140.632 185.096C142.2 185.64 143.496 186.264 144.52 186.968L142.024 192.776C141.096 192.232 140.104 191.752 139.048 191.336C137.992 190.92 136.84 190.712 135.592 190.712C133.768 190.712 132.456 191.16 131.656 192.056C130.856 192.952 130.456 194.456 130.456 196.568L130.456 218.264L122.968 218.264L122.968 196.184Z" fill="black"/>
</svg>
