<svg width="160" height="240" viewBox="0 0 160 240" fill="none" xmlns="http://www.w3.org/2000/svg">
<rect width="160" height="240" rx="15" fill="white"/>
<path d="M100.75 147.132C112.488 147.132 122 137.534 122 125.694C122 113.854 112.488 104.256 100.75 104.256C96.8995 104.256 93.2955 105.305 90.1817 107.114H89.5867C95.3865 103.635 99.2852 97.2668 99.2852 89.9634C99.2852 78.9384 90.4282 70 79.5 70C68.5718 70 59.712 78.9384 59.712 89.9634C59.712 97.2668 63.6107 103.635 69.4105 107.114H68.8212C65.7045 105.305 62.1033 104.256 58.25 104.256C46.5143 104.256 37 113.854 37 125.694C37 137.534 46.5143 147.132 58.25 147.132C64.3558 147.132 69.8412 144.52 73.72 140.364C72.5555 152.143 60.2475 161.425 48.3333 161.425H49.75C47.4012 161.425 45.5 163.346 45.5 165.712C45.5 168.079 47.4012 170 49.75 170H109.25C111.596 170 113.5 168.079 113.5 165.712C113.5 163.346 111.596 161.425 109.25 161.425H110.667C98.7525 161.425 86.4445 152.14 85.2828 140.361C89.156 144.52 94.647 147.132 100.75 147.132Z" fill="#31373D"/>
<path d="M38.472 55C37.8 53.912 37 52.744 36.072 51.496C35.176 50.216 34.184 48.952 33.096 47.704C32.04 46.424 30.936 45.208 29.784 44.056C28.632 42.872 27.48 41.832 26.328 40.936V55H18.84V21.736H26.328V34.312C28.28 32.264 30.232 30.136 32.184 27.928C34.168 25.688 36.008 23.624 37.704 21.736H46.584C44.312 24.424 42.024 27.016 39.72 29.512C37.448 32.008 35.048 34.52 32.52 37.048C35.176 39.256 37.736 41.88 40.2 44.92C42.696 47.96 45.08 51.32 47.352 55H38.472Z" fill="black"/>
<path d="M121.528 185C122.2 186.088 123 187.256 123.928 188.504C124.824 189.784 125.816 191.048 126.904 192.296C127.96 193.576 129.064 194.792 130.216 195.944C131.368 197.128 132.52 198.168 133.672 199.064L133.672 185L141.16 185L141.16 218.264L133.672 218.264L133.672 205.688C131.72 207.736 129.768 209.864 127.816 212.072C125.832 214.312 123.992 216.376 122.296 218.264L113.416 218.264C115.688 215.576 117.976 212.984 120.28 210.488C122.552 207.992 124.952 205.48 127.48 202.952C124.824 200.744 122.264 198.12 119.8 195.08C117.304 192.04 114.92 188.68 112.648 185L121.528 185Z" fill="black"/>
</svg>
