<svg width="160" height="240" viewBox="0 0 160 240" fill="none" xmlns="http://www.w3.org/2000/svg">
<rect width="160" height="240" rx="30" fill="white"/>
<path d="M35 144.664C35 118.15 69.4116 108.323 80 139.016C90.5884 108.32 125 118.147 125 144.664C125 173.473 80 210 80 210C80 210 35 173.473 35 144.664Z" fill="#BE1931"/>
<path d="M87.7788 81.416C87.7788 79.56 87.3628 77.928 86.5308 76.52C85.6988 75.048 84.2588 73.832 82.2108 72.872C80.1628 71.912 77.4108 71.176 73.9548 70.664C70.4988 70.152 66.1468 69.896 60.8988 69.896C61.6028 63.944 62.1788 57.896 62.6268 51.752C63.0748 45.608 63.4268 39.848 63.6828 34.472H99.6828V46.472H75.6828C75.5548 48.776 75.3948 51.016 75.2028 53.192C75.0748 55.304 74.9148 57.16 74.7228 58.76C84.0668 59.4 90.9468 61.608 95.3628 65.384C99.8428 69.096 102.083 74.28 102.083 80.936C102.083 84.008 101.539 86.856 100.451 89.48C99.3628 92.104 97.7308 94.376 95.5548 96.296C93.3788 98.216 90.6268 99.72 87.2988 100.808C84.0348 101.896 80.1948 102.44 75.7788 102.44C74.0508 102.44 72.2268 102.312 70.3068 102.056C68.4508 101.864 66.6268 101.576 64.8348 101.192C63.1068 100.872 61.5388 100.52 60.1308 100.136C58.7228 99.752 57.6348 99.368 56.8668 98.984L59.4588 87.176C61.0588 87.88 63.1708 88.584 65.7948 89.288C68.4188 89.928 71.5548 90.248 75.2028 90.248C79.6188 90.248 82.8188 89.384 84.8028 87.656C86.7868 85.864 87.7788 83.784 87.7788 81.416Z" fill="black"/>
</svg>
