<svg width="160" height="240" viewBox="0 0 160 240" fill="none" xmlns="http://www.w3.org/2000/svg">
<rect width="160" height="240" rx="30" fill="white"/>
<path d="M35 144.664C35 118.15 69.4116 108.323 80 139.016C90.5884 108.32 125 118.147 125 144.664C125 173.473 80 210 80 210C80 210 35 173.473 35 144.664Z" fill="#BE1931"/>
<path d="M66.8508 101C67.2348 96.328 68.0348 91.464 69.2508 86.408C70.4668 81.352 71.9388 76.392 73.6668 71.528C75.4588 66.664 77.4428 62.088 79.6188 57.8C81.7948 53.448 84.0028 49.704 86.2428 46.568H57.3468V34.376H103.907V44.744C101.859 46.984 99.5868 50.088 97.0908 54.056C94.6588 58.024 92.3228 62.536 90.0828 67.592C87.9068 72.584 85.9868 77.96 84.3228 83.72C82.7228 89.48 81.7308 95.24 81.3468 101H66.8508Z" fill="black"/>
</svg>
