<svg width="160" height="240" viewBox="0 0 160 240" fill="none" xmlns="http://www.w3.org/2000/svg">
<rect width="160" height="240" rx="30" fill="white"/>
<path d="M35 144.664C35 118.15 69.4116 108.323 80 139.016C90.5884 108.32 125 118.147 125 144.664C125 173.473 80 210 80 210C80 210 35 173.473 35 144.664Z" fill="#BE1931"/>
<path d="M36.9575 48.296C38.8135 47.528 40.7335 46.664 42.7175 45.704C44.7655 44.68 46.7495 43.592 48.6695 42.44C50.5895 41.224 52.4135 39.976 54.1415 38.696C55.9335 37.352 57.5335 35.944 58.9415 34.472H68.9255V101H54.6215V53.096C52.7015 54.376 50.5575 55.56 48.1895 56.648C45.8215 57.672 43.5175 58.568 41.2775 59.336L36.9575 48.296ZM126.464 67.592C126.464 78.792 124.32 87.4 120.032 93.416C115.808 99.368 109.952 102.344 102.464 102.344C94.976 102.344 89.088 99.368 84.8 93.416C80.576 87.4 78.464 78.792 78.464 67.592C78.464 62.024 79.008 57.096 80.096 52.808C81.248 48.52 82.88 44.904 84.992 41.96C87.104 39.016 89.632 36.776 92.576 35.24C95.52 33.704 98.816 32.936 102.464 32.936C109.952 32.936 115.808 35.944 120.032 41.96C124.32 47.912 126.464 56.456 126.464 67.592ZM111.872 67.592C111.872 64.264 111.712 61.256 111.392 58.568C111.072 55.816 110.56 53.448 109.856 51.464C109.152 49.48 108.192 47.944 106.976 46.856C105.76 45.768 104.256 45.224 102.464 45.224C100.672 45.224 99.168 45.768 97.952 46.856C96.8 47.944 95.84 49.48 95.072 51.464C94.368 53.448 93.856 55.816 93.536 58.568C93.216 61.256 93.056 64.264 93.056 67.592C93.056 70.92 93.216 73.96 93.536 76.712C93.856 79.464 94.368 81.832 95.072 83.816C95.84 85.8 96.8 87.336 97.952 88.424C99.168 89.512 100.672 90.056 102.464 90.056C104.256 90.056 105.76 89.512 106.976 88.424C108.192 87.336 109.152 85.8 109.856 83.816C110.56 81.832 111.072 79.464 111.392 76.712C111.712 73.96 111.872 70.92 111.872 67.592Z" fill="black"/>
</svg>
