<svg width="160" height="240" viewBox="0 0 160 240" fill="none" xmlns="http://www.w3.org/2000/svg">
<rect width="160" height="240" rx="30" fill="white"/>
<path d="M35 144.664C35 118.15 69.4116 108.323 80 139.016C90.5884 108.32 125 118.147 125 144.664C125 173.473 80 210 80 210C80 210 35 173.473 35 144.664Z" fill="#BE1931"/>
<path d="M99.1578 78.632C99.1578 81.896 98.7738 84.968 98.0058 87.848C97.3018 90.728 96.0218 93.256 94.1658 95.432C92.3738 97.544 89.9098 99.24 86.7738 100.52C83.7018 101.736 79.7978 102.344 75.0618 102.344C70.7098 102.344 66.9658 101.832 63.8298 100.808C60.6938 99.72 58.1018 98.472 56.0538 97.064L61.0458 85.448C62.9018 86.536 64.8858 87.496 66.9978 88.328C69.1098 89.16 71.4138 89.576 73.9098 89.576C77.5578 89.576 80.1818 88.68 81.7818 86.888C83.3818 85.096 84.1818 82.088 84.1818 77.864V34.472H99.1578V78.632Z" fill="black"/>
</svg>
