<svg width="160" height="240" viewBox="0 0 160 240" fill="none" xmlns="http://www.w3.org/2000/svg">
<rect width="160" height="240" rx="30" fill="white"/>
<path d="M35 144.664C35 118.15 69.4116 108.323 80 139.016C90.5884 108.32 125 118.147 125 144.664C125 173.473 80 210 80 210C80 210 35 173.473 35 144.664Z" fill="#BE1931"/>
<path d="M94.1315 101C92.7875 98.824 91.1875 96.488 89.3315 93.992C87.5395 91.432 85.5555 88.904 83.3795 86.408C81.2675 83.848 79.0595 81.416 76.7555 79.112C74.4515 76.744 72.1475 74.664 69.8435 72.872V101H54.8675V34.472H69.8435V59.624C73.7475 55.528 77.6515 51.272 81.5555 46.856C85.5235 42.376 89.2035 38.248 92.5955 34.472H110.356C105.812 39.848 101.236 45.032 96.6275 50.024C92.0835 55.016 87.2835 60.04 82.2275 65.096C87.5395 69.512 92.6595 74.76 97.5875 80.84C102.58 86.92 107.348 93.64 111.892 101H94.1315Z" fill="black"/>
</svg>
