<svg width="160" height="240" viewBox="0 0 160 240" fill="none" xmlns="http://www.w3.org/2000/svg">
<rect width="160" height="240" rx="30" fill="white"/>
<path d="M116 170.623C116 148.301 80 120 80 120C80 120 44 148.301 44 170.623C44 188.084 63.8865 196.194 75.0545 183.627C74.2372 194.133 63.5727 202.459 53.2414 202.459H54.4577C52.4411 202.459 50.8088 204.148 50.8088 206.229C50.8088 208.311 52.4411 210 54.4577 210H105.542C107.556 210 109.191 208.311 109.191 206.229C109.191 204.148 107.556 202.459 105.542 202.459H106.759C96.4298 202.459 85.7604 194.133 84.9455 183.627C96.1135 196.194 116 188.084 116 170.623Z" fill="#31373D"/>
<path d="M100.835 51.944C100.835 54.376 100.355 56.712 99.3948 58.952C98.4348 61.192 97.1868 63.368 95.6508 65.48C94.1148 67.528 92.3868 69.512 90.4668 71.432C88.5468 73.352 86.6588 75.176 84.8028 76.904C83.8428 77.8 82.7868 78.824 81.6348 79.976C80.5468 81.064 79.4908 82.184 78.4668 83.336C77.4428 84.488 76.5148 85.576 75.6828 86.6C74.9148 87.56 74.4348 88.36 74.2428 89H102.851V101H58.4988C58.3708 100.296 58.3068 99.4 58.3068 98.312C58.3068 97.224 58.3068 96.456 58.3068 96.008C58.3068 92.936 58.7868 90.12 59.7468 87.56C60.7708 85 62.0828 82.632 63.6828 80.456C65.2828 78.216 67.0748 76.136 69.0588 74.216C71.1068 72.296 73.1228 70.376 75.1068 68.456C76.6428 66.984 78.0828 65.608 79.4268 64.328C80.7708 62.984 81.9548 61.704 82.9788 60.488C84.0028 59.208 84.8028 57.96 85.3788 56.744C85.9548 55.464 86.2428 54.184 86.2428 52.904C86.2428 50.088 85.4428 48.104 83.8428 46.952C82.2428 45.8 80.2587 45.224 77.8907 45.224C76.1628 45.224 74.5308 45.512 72.9948 46.088C71.5228 46.6 70.1468 47.24 68.8668 48.008C67.6508 48.712 66.5948 49.448 65.6988 50.216C64.8028 50.92 64.1308 51.496 63.6828 51.944L56.5788 41.96C59.3948 39.336 62.6588 37.192 66.3708 35.528C70.1468 33.8 74.1788 32.936 78.4668 32.936C82.3708 32.936 85.7308 33.384 88.5468 34.28C91.3628 35.176 93.6668 36.456 95.4588 38.12C97.3148 39.72 98.6588 41.704 99.4908 44.072C100.387 46.376 100.835 49 100.835 51.944Z" fill="black"/>
</svg>
