<svg width="160" height="240" viewBox="0 0 160 240" fill="none" xmlns="http://www.w3.org/2000/svg">
<rect width="160" height="240" rx="30" fill="white"/>
<path d="M116 170.623C116 148.301 80 120 80 120C80 120 44 148.301 44 170.623C44 188.084 63.8865 196.194 75.0545 183.627C74.2372 194.133 63.5727 202.459 53.2414 202.459H54.4577C52.4411 202.459 50.8088 204.148 50.8088 206.229C50.8088 208.311 52.4411 210 54.4577 210H105.542C107.556 210 109.191 208.311 109.191 206.229C109.191 204.148 107.556 202.459 105.542 202.459H106.759C96.4298 202.459 85.7604 194.133 84.9455 183.627C96.1135 196.194 116 188.084 116 170.623Z" fill="#31373D"/>
<path d="M75.1068 102.44C73.3788 102.44 71.5548 102.312 69.6348 102.056C67.7148 101.864 65.8588 101.576 64.0668 101.192C62.2748 100.808 60.6428 100.392 59.1708 99.944C57.6988 99.496 56.5468 99.08 55.7148 98.696L58.4988 86.792C60.1628 87.496 62.2748 88.264 64.8348 89.096C67.4588 89.864 70.6908 90.248 74.5308 90.248C78.9468 90.248 82.1788 89.416 84.2268 87.752C86.2748 86.088 87.2988 83.848 87.2988 81.032C87.2988 79.304 86.9148 77.864 86.1468 76.712C85.4428 75.496 84.4508 74.536 83.1708 73.832C81.8908 73.064 80.3548 72.552 78.5627 72.296C76.8348 71.976 74.9788 71.816 72.9948 71.816H67.4268V60.296H73.7628C75.1708 60.296 76.5148 60.168 77.7948 59.912C79.1388 59.656 80.3228 59.24 81.3468 58.664C82.3708 58.024 83.1708 57.192 83.7468 56.168C84.3868 55.08 84.7068 53.736 84.7068 52.136C84.7068 50.92 84.4508 49.864 83.9388 48.968C83.4268 48.072 82.7548 47.336 81.9228 46.76C81.1548 46.184 80.2268 45.768 79.1388 45.512C78.1148 45.192 77.0588 45.032 75.9708 45.032C73.2188 45.032 70.6588 45.448 68.2908 46.28C65.9868 47.112 63.8748 48.136 61.9548 49.352L56.8668 38.888C57.8908 38.248 59.0748 37.576 60.4188 36.872C61.8268 36.168 63.3628 35.528 65.0268 34.952C66.6908 34.376 68.4508 33.896 70.3068 33.512C72.2268 33.128 74.2428 32.936 76.3548 32.936C80.2588 32.936 83.6188 33.416 86.4348 34.376C89.3148 35.272 91.6828 36.584 93.5388 38.312C95.3948 39.976 96.7708 41.96 97.6668 44.264C98.5628 46.504 99.0108 48.968 99.0108 51.656C99.0108 54.28 98.2748 56.84 96.8028 59.336C95.3308 61.768 93.3468 63.624 90.8508 64.904C94.3068 66.312 96.9628 68.424 98.8188 71.24C100.739 73.992 101.699 77.32 101.699 81.224C101.699 84.296 101.187 87.144 100.163 89.768C99.1388 92.328 97.5388 94.568 95.3628 96.488C93.1868 98.344 90.4028 99.816 87.0108 100.904C83.6828 101.928 79.7148 102.44 75.1068 102.44Z" fill="black"/>
</svg>
