<svg width="160" height="240" viewBox="0 0 160 240" fill="none" xmlns="http://www.w3.org/2000/svg">
<rect width="160" height="240" rx="30" fill="white"/>
<path d="M116 170.623C116 148.301 80 120 80 120C80 120 44 148.301 44 170.623C44 188.084 63.8865 196.194 75.0545 183.627C74.2372 194.133 63.5727 202.459 53.2414 202.459H54.4577C52.4411 202.459 50.8088 204.148 50.8088 206.229C50.8088 208.311 52.4411 210 54.4577 210H105.542C107.556 210 109.191 208.311 109.191 206.229C109.191 204.148 107.556 202.459 105.542 202.459H106.759C96.4298 202.459 85.7604 194.133 84.9455 183.627C96.1135 196.194 116 188.084 116 170.623Z" fill="#31373D"/>
<path d="M83.8428 51.944C81.3468 55.208 78.6908 58.76 75.8748 62.6C73.0588 66.44 70.6908 70.376 68.7708 74.408H83.8428V51.944ZM97.8588 34.472V74.408H104.963V86.12H97.8588V101H83.8428V86.12H55.1388V75.656C56.5468 72.84 58.3068 69.672 60.4188 66.152C62.5308 62.568 64.8668 58.92 67.4268 55.208C70.0508 51.432 72.8028 47.752 75.6828 44.168C78.5628 40.584 81.4428 37.352 84.3228 34.472H97.8588Z" fill="black"/>
</svg>
