<svg width="160" height="240" viewBox="0 0 160 240" fill="none" xmlns="http://www.w3.org/2000/svg">
<rect width="160" height="240" rx="30" fill="white"/>
<path d="M116 170.623C116 148.301 80 120 80 120C80 120 44 148.301 44 170.623C44 188.084 63.8865 196.194 75.0545 183.627C74.2372 194.133 63.5727 202.459 53.2414 202.459H54.4577C52.4411 202.459 50.8088 204.148 50.8088 206.229C50.8088 208.311 52.4411 210 54.4577 210H105.542C107.556 210 109.191 208.311 109.191 206.229C109.191 204.148 107.556 202.459 105.542 202.459H106.759C96.4298 202.459 85.7604 194.133 84.9455 183.627C96.1135 196.194 116 188.084 116 170.623Z" fill="#31373D"/>
<path d="M79.5228 69.704C78.1148 69.704 76.6108 69.832 75.0108 70.088C73.4108 70.344 72.1628 70.696 71.2668 71.144C71.2668 71.4 71.2348 71.784 71.1708 72.296C71.1708 72.808 71.1708 73.256 71.1708 73.64C71.1708 75.944 71.3308 78.12 71.6508 80.168C71.9708 82.216 72.5148 84.008 73.2828 85.544C74.0508 87.08 75.0748 88.296 76.3548 89.192C77.6348 90.024 79.2348 90.44 81.1548 90.44C82.7548 90.44 84.0988 90.12 85.1868 89.48C86.3388 88.776 87.2668 87.912 87.9708 86.888C88.7388 85.864 89.2828 84.744 89.6028 83.528C89.9868 82.248 90.1788 81.032 90.1788 79.88C90.1788 76.616 89.3468 74.12 87.6828 72.392C86.0828 70.6 83.3628 69.704 79.5228 69.704ZM81.3468 58.568C85.5068 58.568 89.0268 59.144 91.9068 60.296C94.8508 61.384 97.2508 62.888 99.1068 64.808C100.963 66.728 102.307 68.968 103.139 71.528C103.971 74.088 104.387 76.808 104.387 79.688C104.387 82.248 103.907 84.872 102.947 87.56C102.051 90.248 100.643 92.68 98.7228 94.856C96.8668 97.032 94.4668 98.824 91.5228 100.232C88.6428 101.64 85.2188 102.344 81.2508 102.344C73.2508 102.344 67.1708 99.816 63.0108 94.76C58.8508 89.704 56.7708 82.728 56.7708 73.832C56.7708 67.432 57.7628 61.768 59.7468 56.84C61.7308 51.912 64.5468 47.784 68.1948 44.456C71.9068 41.064 76.3548 38.504 81.5388 36.776C86.7868 34.984 92.6748 34.056 99.2028 33.992C99.3308 35.976 99.4588 37.928 99.5868 39.848C99.7148 41.704 99.8428 43.656 99.9708 45.704C96.7068 45.768 93.6348 46.088 90.7548 46.664C87.9388 47.176 85.3468 48.008 82.9788 49.16C80.6748 50.312 78.6588 51.816 76.9308 53.672C75.2028 55.464 73.8588 57.672 72.8988 60.296C74.3068 59.656 75.7468 59.208 77.2188 58.952C78.6908 58.696 80.0668 58.568 81.3468 58.568Z" fill="black"/>
</svg>
