<svg width="160" height="240" viewBox="0 0 160 240" fill="none" xmlns="http://www.w3.org/2000/svg">
<rect width="160" height="240" rx="30" fill="white"/>
<path d="M116 170.623C116 148.301 80 120 80 120C80 120 44 148.301 44 170.623C44 188.084 63.8865 196.194 75.0545 183.627C74.2372 194.133 63.5727 202.459 53.2414 202.459H54.4577C52.4411 202.459 50.8088 204.148 50.8088 206.229C50.8088 208.311 52.4411 210 54.4577 210H105.542C107.556 210 109.191 208.311 109.191 206.229C109.191 204.148 107.556 202.459 105.542 202.459H106.759C96.4298 202.459 85.7604 194.133 84.9455 183.627C96.1135 196.194 116 188.084 116 170.623Z" fill="#31373D"/>
<path d="M66.8508 101C67.2348 96.328 68.0348 91.464 69.2508 86.408C70.4668 81.352 71.9388 76.392 73.6668 71.528C75.4588 66.664 77.4428 62.088 79.6188 57.8C81.7948 53.448 84.0028 49.704 86.2428 46.568H57.3468V34.376H103.907V44.744C101.859 46.984 99.5868 50.088 97.0908 54.056C94.6588 58.024 92.3228 62.536 90.0828 67.592C87.9068 72.584 85.9868 77.96 84.3228 83.72C82.7228 89.48 81.7308 95.24 81.3468 101H66.8508Z" fill="black"/>
</svg>
