<svg width="160" height="240" viewBox="0 0 160 240" fill="none" xmlns="http://www.w3.org/2000/svg">
<rect width="160" height="240" rx="30" fill="white"/>
<path d="M116 170.623C116 148.301 80 120 80 120C80 120 44 148.301 44 170.623C44 188.084 63.8865 196.194 75.0545 183.627C74.2372 194.133 63.5727 202.459 53.2414 202.459H54.4577C52.4411 202.459 50.8088 204.148 50.8088 206.229C50.8088 208.311 52.4411 210 54.4577 210H105.542C107.556 210 109.191 208.311 109.191 206.229C109.191 204.148 107.556 202.459 105.542 202.459H106.759C96.4298 202.459 85.7604 194.133 84.9455 183.627C96.1135 196.194 116 188.084 116 170.623Z" fill="#31373D"/>
<path d="M80.9628 65.288C82.4348 65.288 83.9708 65.16 85.5708 64.904C87.1708 64.584 88.3548 64.168 89.1228 63.656V62.792C89.1228 62.536 89.1228 62.28 89.1228 62.024C89.1868 61.768 89.2188 61.544 89.2188 61.352C89.1548 59.048 88.9628 56.904 88.6428 54.92C88.3228 52.872 87.7788 51.112 87.0108 49.64C86.2428 48.104 85.1868 46.92 83.8428 46.088C82.5628 45.192 80.9628 44.744 79.0428 44.744C77.5068 44.744 76.1628 45.064 75.0108 45.704C73.8588 46.344 72.9308 47.176 72.2268 48.2C71.5228 49.224 70.9788 50.344 70.5948 51.56C70.2748 52.776 70.1148 53.96 70.1148 55.112C70.1148 58.568 70.9468 61.128 72.6108 62.792C74.3388 64.456 77.1228 65.288 80.9628 65.288ZM87.9708 74.6C86.6268 75.24 85.1228 75.72 83.4588 76.04C81.8588 76.296 80.4828 76.424 79.3308 76.424C75.1708 76.424 71.6188 75.944 68.6748 74.984C65.7308 73.96 63.2988 72.552 61.3788 70.76C59.5228 68.904 58.1468 66.696 57.2508 64.136C56.3548 61.576 55.9068 58.76 55.9068 55.688C55.9068 53.128 56.3228 50.504 57.1548 47.816C58.0508 45.128 59.4268 42.696 61.2828 40.52C63.1388 38.28 65.4748 36.456 68.2908 35.048C71.1708 33.576 74.6268 32.84 78.6588 32.84C86.9148 32.84 93.1228 35.4 97.2828 40.52C101.507 45.576 103.619 52.872 103.619 62.408C103.619 68.68 102.787 74.216 101.123 79.016C99.5228 83.816 96.9948 87.848 93.5388 91.112C90.1468 94.376 85.7948 96.872 80.4828 98.6C75.1708 100.264 68.8668 101.128 61.5708 101.192C61.5068 99.144 61.4108 97.16 61.2828 95.24C61.1548 93.32 61.0268 91.336 60.8988 89.288C64.5468 89.224 67.8428 88.968 70.7868 88.52C73.7308 88.008 76.3228 87.208 78.5627 86.12C80.8028 84.968 82.6908 83.464 84.2268 81.608C85.8268 79.752 87.0748 77.416 87.9708 74.6Z" fill="black"/>
</svg>
