<svg width="160" height="240" viewBox="0 0 160 240" fill="none" xmlns="http://www.w3.org/2000/svg">
<rect width="160" height="240" rx="30" fill="white"/>
<path d="M116 170.623C116 148.301 80 120 80 120C80 120 44 148.301 44 170.623C44 188.084 63.8865 196.194 75.0545 183.627C74.2372 194.133 63.5727 202.459 53.2414 202.459H54.4577C52.4411 202.459 50.8088 204.148 50.8088 206.229C50.8088 208.311 52.4411 210 54.4577 210H105.542C107.556 210 109.191 208.311 109.191 206.229C109.191 204.148 107.556 202.459 105.542 202.459H106.759C96.4298 202.459 85.7604 194.133 84.9455 183.627C96.1135 196.194 116 188.084 116 170.623Z" fill="#31373D"/>
<path d="M94.1315 101C92.7875 98.824 91.1875 96.488 89.3315 93.992C87.5395 91.432 85.5555 88.904 83.3795 86.408C81.2675 83.848 79.0595 81.416 76.7555 79.112C74.4515 76.744 72.1475 74.664 69.8435 72.872V101H54.8675V34.472H69.8435V59.624C73.7475 55.528 77.6515 51.272 81.5555 46.856C85.5235 42.376 89.2035 38.248 92.5955 34.472H110.356C105.812 39.848 101.236 45.032 96.6275 50.024C92.0835 55.016 87.2835 60.04 82.2275 65.096C87.5395 69.512 92.6595 74.76 97.5875 80.84C102.58 86.92 107.348 93.64 111.892 101H94.1315Z" fill="black"/>
</svg>
