<svg width="160" height="240" viewBox="0 0 160 240" fill="none" xmlns="http://www.w3.org/2000/svg">
<rect width="160" height="240" rx="30" fill="white"/>
<path d="M80.8959 209.368C80.2611 210.211 79.2382 210.211 78.6035 209.368L46.476 166.531C45.8413 165.686 45.8413 164.316 46.476 163.471L78.6035 120.634C79.2382 119.789 80.2611 119.789 80.8959 120.634L113.026 163.471C113.658 164.316 113.658 165.686 113.026 166.531L80.8959 209.368Z" fill="#BE1931"/>
<path d="M97.6303 101C96.9263 98.696 96.1263 96.328 95.2303 93.896C94.3983 91.464 93.5663 89.032 92.7343 86.6H66.8143C65.9823 89.032 65.1183 91.464 64.2223 93.896C63.3903 96.328 62.6223 98.696 61.9183 101H46.3663C48.8623 93.832 51.2303 87.208 53.4703 81.128C55.7103 75.048 57.8863 69.32 59.9983 63.944C62.1743 58.568 64.2863 53.48 66.3343 48.68C68.4463 43.816 70.6223 39.08 72.8623 34.472H87.1663C89.3423 39.08 91.4863 43.816 93.5983 48.68C95.7103 53.48 97.8223 58.568 99.9343 63.944C102.11 69.32 104.318 75.048 106.558 81.128C108.798 87.208 111.166 93.832 113.662 101H97.6303ZM79.6783 49.544C79.3583 50.504 78.8783 51.816 78.2383 53.48C77.5983 55.144 76.8623 57.064 76.0303 59.24C75.1983 61.416 74.2703 63.816 73.2463 66.44C72.2863 69.064 71.2943 71.816 70.2703 74.696H89.1823C88.1583 71.816 87.1663 69.064 86.2063 66.44C85.2463 63.816 84.3183 61.416 83.4223 59.24C82.5903 57.064 81.8543 55.144 81.2143 53.48C80.5743 51.816 80.0623 50.504 79.6783 49.544Z" fill="black"/>
</svg>
