<svg width="160" height="240" viewBox="0 0 160 240" fill="none" xmlns="http://www.w3.org/2000/svg">
<rect width="160" height="240" rx="30" fill="white"/>
<path d="M80.8959 209.368C80.2611 210.211 79.2382 210.211 78.6035 209.368L46.476 166.531C45.8413 165.686 45.8413 164.316 46.476 163.471L78.6035 120.634C79.2382 119.789 80.2611 119.789 80.8959 120.634L113.026 163.471C113.658 164.316 113.658 165.686 113.026 166.531L80.8959 209.368Z" fill="#BE1931"/>
<path d="M83.8428 51.944C81.3468 55.208 78.6908 58.76 75.8748 62.6C73.0588 66.44 70.6908 70.376 68.7708 74.408H83.8428V51.944ZM97.8588 34.472V74.408H104.963V86.12H97.8588V101H83.8428V86.12H55.1388V75.656C56.5468 72.84 58.3068 69.672 60.4188 66.152C62.5308 62.568 64.8668 58.92 67.4268 55.208C70.0508 51.432 72.8028 47.752 75.6828 44.168C78.5628 40.584 81.4428 37.352 84.3228 34.472H97.8588Z" fill="black"/>
</svg>
