<svg width="160" height="240" viewBox="0 0 160 240" fill="none" xmlns="http://www.w3.org/2000/svg">
<rect width="160" height="240" rx="30" fill="white"/>
<path d="M80.8959 209.368C80.2611 210.211 79.2382 210.211 78.6035 209.368L46.476 166.531C45.8413 165.686 45.8413 164.316 46.476 163.471L78.6035 120.634C79.2382 119.789 80.2611 119.789 80.8959 120.634L113.026 163.471C113.658 164.316 113.658 165.686 113.026 166.531L80.8959 209.368Z" fill="#BE1931"/>
<path d="M104.099 82.472C104.099 85.352 103.587 88.008 102.563 90.44C101.603 92.808 100.131 94.888 98.1468 96.68C96.1628 98.472 93.6668 99.88 90.6588 100.904C87.7148 101.864 84.2908 102.344 80.3868 102.344C75.9068 102.344 72.1628 101.736 69.1548 100.52C66.2108 99.24 63.8108 97.672 61.9548 95.816C60.1628 93.96 58.8828 91.944 58.1148 89.768C57.3468 87.528 56.9628 85.48 56.9628 83.624C56.9628 81.704 57.2188 79.944 57.7308 78.344C58.2428 76.744 58.9468 75.304 59.8428 74.024C60.7388 72.68 61.7308 71.464 62.8188 70.376C63.9708 69.288 65.1868 68.264 66.4668 67.304C63.7148 65.064 61.6668 62.856 60.3228 60.68C59.0428 58.504 58.4028 55.72 58.4028 52.328C58.4028 49.768 58.9148 47.304 59.9388 44.936C61.0268 42.568 62.5308 40.52 64.4508 38.792C66.3708 37 68.6748 35.592 71.3628 34.568C74.1148 33.48 77.1548 32.936 80.4828 32.936C84.3868 32.936 87.7148 33.512 90.4668 34.664C93.2828 35.752 95.5868 37.16 97.3788 38.888C99.1708 40.616 100.451 42.568 101.219 44.744C102.051 46.856 102.467 48.968 102.467 51.08C102.467 54.152 101.635 57.032 99.9708 59.72C98.3708 62.344 96.3548 64.424 93.9228 65.96C97.5708 68.328 100.163 70.824 101.699 73.448C103.299 76.008 104.099 79.016 104.099 82.472ZM70.8828 83.048C70.8828 83.816 71.0428 84.68 71.3628 85.64C71.7468 86.536 72.3228 87.368 73.0908 88.136C73.8588 88.904 74.8508 89.544 76.0668 90.056C77.2828 90.568 78.7548 90.824 80.4828 90.824C83.8108 90.824 86.2428 90.024 87.7788 88.424C89.3148 86.824 90.0828 85.032 90.0828 83.048C90.0828 81.576 89.7308 80.264 89.0268 79.112C88.3868 77.96 87.4908 76.968 86.3388 76.136C85.1868 75.24 83.8108 74.472 82.2108 73.832C80.6748 73.128 79.0108 72.488 77.2188 71.912C75.4268 73.256 73.9228 74.824 72.7068 76.616C71.4908 78.408 70.8828 80.552 70.8828 83.048ZM88.6428 51.464C88.6428 50.76 88.4828 50.024 88.1628 49.256C87.9068 48.424 87.4268 47.656 86.7228 46.952C86.0828 46.248 85.2508 45.672 84.2268 45.224C83.2028 44.712 81.9548 44.456 80.4828 44.456C79.0748 44.456 77.8588 44.68 76.8348 45.128C75.8108 45.576 74.9468 46.184 74.2428 46.952C73.6028 47.656 73.1228 48.424 72.8028 49.256C72.4828 50.088 72.3228 50.888 72.3228 51.656C72.3228 53.704 73.0588 55.624 74.5308 57.416C76.0668 59.208 78.6588 60.744 82.3068 62.024C84.3548 60.744 85.9228 59.272 87.0108 57.608C88.0988 55.944 88.6428 53.896 88.6428 51.464Z" fill="black"/>
</svg>
