<svg width="160" height="240" viewBox="0 0 160 240" fill="none" xmlns="http://www.w3.org/2000/svg">
<rect width="160" height="240" rx="30" fill="white"/>
<path d="M80.8959 209.368C80.2611 210.211 79.2382 210.211 78.6035 209.368L46.476 166.531C45.8413 165.686 45.8413 164.316 46.476 163.471L78.6035 120.634C79.2382 119.789 80.2611 119.789 80.8959 120.634L113.026 163.471C113.658 164.316 113.658 165.686 113.026 166.531L80.8959 209.368Z" fill="#BE1931"/>
<path d="M94.1315 101C92.7875 98.824 91.1875 96.488 89.3315 93.992C87.5395 91.432 85.5555 88.904 83.3795 86.408C81.2675 83.848 79.0595 81.416 76.7555 79.112C74.4515 76.744 72.1475 74.664 69.8435 72.872V101H54.8675V34.472H69.8435V59.624C73.7475 55.528 77.6515 51.272 81.5555 46.856C85.5235 42.376 89.2035 38.248 92.5955 34.472H110.356C105.812 39.848 101.236 45.032 96.6275 50.024C92.0835 55.016 87.2835 60.04 82.2275 65.096C87.5395 69.512 92.6595 74.76 97.5875 80.84C102.58 86.92 107.348 93.64 111.892 101H94.1315Z" fill="black"/>
</svg>
