<svg width="160" height="240" viewBox="0 0 160 240" fill="none" xmlns="http://www.w3.org/2000/svg">
<rect width="160" height="240" rx="30" fill="white"/>
<path d="M99.375 189.419C109.94 189.419 118.5 180.78 118.5 170.125C118.5 159.469 109.94 150.83 99.375 150.83C95.9095 150.83 92.666 151.774 89.8635 153.403H89.328C94.5478 150.272 98.0566 144.54 98.0566 137.967C98.0566 128.045 90.0854 120 80.25 120C70.4146 120 62.4408 128.045 62.4408 137.967C62.4408 144.54 65.9496 150.272 71.1694 153.403H70.639C67.834 151.774 64.593 150.83 61.125 150.83C50.5629 150.83 42 159.469 42 170.125C42 180.78 50.5629 189.419 61.125 189.419C66.6202 189.419 71.557 187.068 75.048 183.327C74 193.929 62.9227 202.282 52.2 202.282H53.475C51.361 202.282 49.65 204.011 49.65 206.141C49.65 208.271 51.361 210 53.475 210H107.025C109.136 210 110.85 208.271 110.85 206.141C110.85 204.011 109.136 202.282 107.025 202.282H108.3C97.5772 202.282 86.5 193.926 85.4546 183.325C88.9404 187.068 93.8823 189.419 99.375 189.419Z" fill="#31373D"/>
<path d="M97.6303 101C96.9263 98.696 96.1263 96.328 95.2303 93.896C94.3983 91.464 93.5663 89.032 92.7343 86.6H66.8143C65.9823 89.032 65.1183 91.464 64.2223 93.896C63.3903 96.328 62.6223 98.696 61.9183 101H46.3663C48.8623 93.832 51.2303 87.208 53.4703 81.128C55.7103 75.048 57.8863 69.32 59.9983 63.944C62.1743 58.568 64.2863 53.48 66.3343 48.68C68.4463 43.816 70.6223 39.08 72.8623 34.472H87.1663C89.3423 39.08 91.4863 43.816 93.5983 48.68C95.7103 53.48 97.8223 58.568 99.9343 63.944C102.11 69.32 104.318 75.048 106.558 81.128C108.798 87.208 111.166 93.832 113.662 101H97.6303ZM79.6783 49.544C79.3583 50.504 78.8783 51.816 78.2383 53.48C77.5983 55.144 76.8623 57.064 76.0303 59.24C75.1983 61.416 74.2703 63.816 73.2463 66.44C72.2863 69.064 71.2943 71.816 70.2703 74.696H89.1823C88.1583 71.816 87.1663 69.064 86.2063 66.44C85.2463 63.816 84.3183 61.416 83.4223 59.24C82.5903 57.064 81.8543 55.144 81.2143 53.48C80.5743 51.816 80.0623 50.504 79.6783 49.544Z" fill="black"/>
</svg>
