<svg width="160" height="240" viewBox="0 0 160 240" fill="none" xmlns="http://www.w3.org/2000/svg">
<rect width="160" height="240" rx="30" fill="white"/>
<path d="M99.375 189.419C109.94 189.419 118.5 180.78 118.5 170.125C118.5 159.469 109.94 150.83 99.375 150.83C95.9095 150.83 92.666 151.774 89.8635 153.403H89.328C94.5478 150.272 98.0566 144.54 98.0566 137.967C98.0566 128.045 90.0854 120 80.25 120C70.4146 120 62.4408 128.045 62.4408 137.967C62.4408 144.54 65.9496 150.272 71.1694 153.403H70.639C67.834 151.774 64.593 150.83 61.125 150.83C50.5629 150.83 42 159.469 42 170.125C42 180.78 50.5629 189.419 61.125 189.419C66.6202 189.419 71.557 187.068 75.048 183.327C74 193.929 62.9227 202.282 52.2 202.282H53.475C51.361 202.282 49.65 204.011 49.65 206.141C49.65 208.271 51.361 210 53.475 210H107.025C109.136 210 110.85 208.271 110.85 206.141C110.85 204.011 109.136 202.282 107.025 202.282H108.3C97.5772 202.282 86.5 193.926 85.4546 183.325C88.9404 187.068 93.8823 189.419 99.375 189.419Z" fill="#31373D"/>
<path d="M100.835 51.944C100.835 54.376 100.355 56.712 99.3948 58.952C98.4348 61.192 97.1868 63.368 95.6508 65.48C94.1148 67.528 92.3868 69.512 90.4668 71.432C88.5468 73.352 86.6588 75.176 84.8028 76.904C83.8428 77.8 82.7868 78.824 81.6348 79.976C80.5468 81.064 79.4908 82.184 78.4668 83.336C77.4428 84.488 76.5148 85.576 75.6828 86.6C74.9148 87.56 74.4348 88.36 74.2428 89H102.851V101H58.4988C58.3708 100.296 58.3068 99.4 58.3068 98.312C58.3068 97.224 58.3068 96.456 58.3068 96.008C58.3068 92.936 58.7868 90.12 59.7468 87.56C60.7708 85 62.0828 82.632 63.6828 80.456C65.2828 78.216 67.0748 76.136 69.0588 74.216C71.1068 72.296 73.1228 70.376 75.1068 68.456C76.6428 66.984 78.0828 65.608 79.4268 64.328C80.7708 62.984 81.9548 61.704 82.9788 60.488C84.0028 59.208 84.8028 57.96 85.3788 56.744C85.9548 55.464 86.2428 54.184 86.2428 52.904C86.2428 50.088 85.4428 48.104 83.8428 46.952C82.2428 45.8 80.2587 45.224 77.8907 45.224C76.1628 45.224 74.5308 45.512 72.9948 46.088C71.5228 46.6 70.1468 47.24 68.8668 48.008C67.6508 48.712 66.5948 49.448 65.6988 50.216C64.8028 50.92 64.1308 51.496 63.6828 51.944L56.5788 41.96C59.3948 39.336 62.6588 37.192 66.3708 35.528C70.1468 33.8 74.1788 32.936 78.4668 32.936C82.3708 32.936 85.7308 33.384 88.5468 34.28C91.3628 35.176 93.6668 36.456 95.4588 38.12C97.3148 39.72 98.6588 41.704 99.4908 44.072C100.387 46.376 100.835 49 100.835 51.944Z" fill="black"/>
</svg>
