<svg width="160" height="240" viewBox="0 0 160 240" fill="none" xmlns="http://www.w3.org/2000/svg">
<rect width="160" height="240" rx="30" fill="white"/>
<path d="M99.375 189.419C109.94 189.419 118.5 180.78 118.5 170.125C118.5 159.469 109.94 150.83 99.375 150.83C95.9095 150.83 92.666 151.774 89.8635 153.403H89.328C94.5478 150.272 98.0566 144.54 98.0566 137.967C98.0566 128.045 90.0854 120 80.25 120C70.4146 120 62.4408 128.045 62.4408 137.967C62.4408 144.54 65.9496 150.272 71.1694 153.403H70.639C67.834 151.774 64.593 150.83 61.125 150.83C50.5629 150.83 42 159.469 42 170.125C42 180.78 50.5629 189.419 61.125 189.419C66.6202 189.419 71.557 187.068 75.048 183.327C74 193.929 62.9227 202.282 52.2 202.282H53.475C51.361 202.282 49.65 204.011 49.65 206.141C49.65 208.271 51.361 210 53.475 210H107.025C109.136 210 110.85 208.271 110.85 206.141C110.85 204.011 109.136 202.282 107.025 202.282H108.3C97.5772 202.282 86.5 193.926 85.4546 183.325C88.9404 187.068 93.8823 189.419 99.375 189.419Z" fill="#31373D"/>
<path d="M83.8428 51.944C81.3468 55.208 78.6908 58.76 75.8748 62.6C73.0588 66.44 70.6908 70.376 68.7708 74.408H83.8428V51.944ZM97.8588 34.472V74.408H104.963V86.12H97.8588V101H83.8428V86.12H55.1388V75.656C56.5468 72.84 58.3068 69.672 60.4188 66.152C62.5308 62.568 64.8668 58.92 67.4268 55.208C70.0508 51.432 72.8028 47.752 75.6828 44.168C78.5628 40.584 81.4428 37.352 84.3228 34.472H97.8588Z" fill="black"/>
</svg>
