<svg width="160" height="240" viewBox="0 0 160 240" fill="none" xmlns="http://www.w3.org/2000/svg">
<rect width="160" height="240" rx="30" fill="white"/>
<path d="M99.375 189.419C109.94 189.419 118.5 180.78 118.5 170.125C118.5 159.469 109.94 150.83 99.375 150.83C95.9095 150.83 92.666 151.774 89.8635 153.403H89.328C94.5478 150.272 98.0566 144.54 98.0566 137.967C98.0566 128.045 90.0854 120 80.25 120C70.4146 120 62.4408 128.045 62.4408 137.967C62.4408 144.54 65.9496 150.272 71.1694 153.403H70.639C67.834 151.774 64.593 150.83 61.125 150.83C50.5629 150.83 42 159.469 42 170.125C42 180.78 50.5629 189.419 61.125 189.419C66.6202 189.419 71.557 187.068 75.048 183.327C74 193.929 62.9227 202.282 52.2 202.282H53.475C51.361 202.282 49.65 204.011 49.65 206.141C49.65 208.271 51.361 210 53.475 210H107.025C109.136 210 110.85 208.271 110.85 206.141C110.85 204.011 109.136 202.282 107.025 202.282H108.3C97.5772 202.282 86.5 193.926 85.4546 183.325C88.9404 187.068 93.8823 189.419 99.375 189.419Z" fill="#31373D"/>
<path d="M87.7788 81.416C87.7788 79.56 87.3628 77.928 86.5308 76.52C85.6988 75.048 84.2588 73.832 82.2108 72.872C80.1628 71.912 77.4108 71.176 73.9548 70.664C70.4988 70.152 66.1468 69.896 60.8988 69.896C61.6028 63.944 62.1788 57.896 62.6268 51.752C63.0748 45.608 63.4268 39.848 63.6828 34.472H99.6828V46.472H75.6828C75.5548 48.776 75.3948 51.016 75.2028 53.192C75.0748 55.304 74.9148 57.16 74.7228 58.76C84.0668 59.4 90.9468 61.608 95.3628 65.384C99.8428 69.096 102.083 74.28 102.083 80.936C102.083 84.008 101.539 86.856 100.451 89.48C99.3628 92.104 97.7308 94.376 95.5548 96.296C93.3788 98.216 90.6268 99.72 87.2988 100.808C84.0348 101.896 80.1948 102.44 75.7788 102.44C74.0508 102.44 72.2268 102.312 70.3068 102.056C68.4508 101.864 66.6268 101.576 64.8348 101.192C63.1068 100.872 61.5388 100.52 60.1308 100.136C58.7228 99.752 57.6348 99.368 56.8668 98.984L59.4588 87.176C61.0588 87.88 63.1708 88.584 65.7948 89.288C68.4188 89.928 71.5548 90.248 75.2028 90.248C79.6188 90.248 82.8188 89.384 84.8028 87.656C86.7868 85.864 87.7788 83.784 87.7788 81.416Z" fill="black"/>
</svg>
