<svg width="160" height="240" viewBox="0 0 160 240" fill="none" xmlns="http://www.w3.org/2000/svg">
<rect width="160" height="240" rx="30" fill="white"/>
<path d="M99.375 189.419C109.94 189.419 118.5 180.78 118.5 170.125C118.5 159.469 109.94 150.83 99.375 150.83C95.9095 150.83 92.666 151.774 89.8635 153.403H89.328C94.5478 150.272 98.0566 144.54 98.0566 137.967C98.0566 128.045 90.0854 120 80.25 120C70.4146 120 62.4408 128.045 62.4408 137.967C62.4408 144.54 65.9496 150.272 71.1694 153.403H70.639C67.834 151.774 64.593 150.83 61.125 150.83C50.5629 150.83 42 159.469 42 170.125C42 180.78 50.5629 189.419 61.125 189.419C66.6202 189.419 71.557 187.068 75.048 183.327C74 193.929 62.9227 202.282 52.2 202.282H53.475C51.361 202.282 49.65 204.011 49.65 206.141C49.65 208.271 51.361 210 53.475 210H107.025C109.136 210 110.85 208.271 110.85 206.141C110.85 204.011 109.136 202.282 107.025 202.282H108.3C97.5772 202.282 86.5 193.926 85.4546 183.325C88.9404 187.068 93.8823 189.419 99.375 189.419Z" fill="#31373D"/>
<path d="M66.8508 101C67.2348 96.328 68.0348 91.464 69.2508 86.408C70.4668 81.352 71.9388 76.392 73.6668 71.528C75.4588 66.664 77.4428 62.088 79.6188 57.8C81.7948 53.448 84.0028 49.704 86.2428 46.568H57.3468V34.376H103.907V44.744C101.859 46.984 99.5868 50.088 97.0908 54.056C94.6588 58.024 92.3228 62.536 90.0828 67.592C87.9068 72.584 85.9868 77.96 84.3228 83.72C82.7228 89.48 81.7308 95.24 81.3468 101H66.8508Z" fill="black"/>
</svg>
