<svg width="160" height="240" viewBox="0 0 160 240" fill="none" xmlns="http://www.w3.org/2000/svg">
<rect width="160" height="240" rx="30" fill="white"/>
<path d="M99.375 189.419C109.94 189.419 118.5 180.78 118.5 170.125C118.5 159.469 109.94 150.83 99.375 150.83C95.9095 150.83 92.666 151.774 89.8635 153.403H89.328C94.5478 150.272 98.0566 144.54 98.0566 137.967C98.0566 128.045 90.0854 120 80.25 120C70.4146 120 62.4408 128.045 62.4408 137.967C62.4408 144.54 65.9496 150.272 71.1694 153.403H70.639C67.834 151.774 64.593 150.83 61.125 150.83C50.5629 150.83 42 159.469 42 170.125C42 180.78 50.5629 189.419 61.125 189.419C66.6202 189.419 71.557 187.068 75.048 183.327C74 193.929 62.9227 202.282 52.2 202.282H53.475C51.361 202.282 49.65 204.011 49.65 206.141C49.65 208.271 51.361 210 53.475 210H107.025C109.136 210 110.85 208.271 110.85 206.141C110.85 204.011 109.136 202.282 107.025 202.282H108.3C97.5772 202.282 86.5 193.926 85.4546 183.325C88.9404 187.068 93.8823 189.419 99.375 189.419Z" fill="#31373D"/>
<path d="M80.9628 65.288C82.4348 65.288 83.9708 65.16 85.5708 64.904C87.1708 64.584 88.3548 64.168 89.1228 63.656V62.792C89.1228 62.536 89.1228 62.28 89.1228 62.024C89.1868 61.768 89.2188 61.544 89.2188 61.352C89.1548 59.048 88.9628 56.904 88.6428 54.92C88.3228 52.872 87.7788 51.112 87.0108 49.64C86.2428 48.104 85.1868 46.92 83.8428 46.088C82.5628 45.192 80.9628 44.744 79.0428 44.744C77.5068 44.744 76.1628 45.064 75.0108 45.704C73.8588 46.344 72.9308 47.176 72.2268 48.2C71.5228 49.224 70.9788 50.344 70.5948 51.56C70.2748 52.776 70.1148 53.96 70.1148 55.112C70.1148 58.568 70.9468 61.128 72.6108 62.792C74.3388 64.456 77.1228 65.288 80.9628 65.288ZM87.9708 74.6C86.6268 75.24 85.1228 75.72 83.4588 76.04C81.8588 76.296 80.4828 76.424 79.3308 76.424C75.1708 76.424 71.6188 75.944 68.6748 74.984C65.7308 73.96 63.2988 72.552 61.3788 70.76C59.5228 68.904 58.1468 66.696 57.2508 64.136C56.3548 61.576 55.9068 58.76 55.9068 55.688C55.9068 53.128 56.3228 50.504 57.1548 47.816C58.0508 45.128 59.4268 42.696 61.2828 40.52C63.1388 38.28 65.4748 36.456 68.2908 35.048C71.1708 33.576 74.6268 32.84 78.6588 32.84C86.9148 32.84 93.1228 35.4 97.2828 40.52C101.507 45.576 103.619 52.872 103.619 62.408C103.619 68.68 102.787 74.216 101.123 79.016C99.5228 83.816 96.9948 87.848 93.5388 91.112C90.1468 94.376 85.7948 96.872 80.4828 98.6C75.1708 100.264 68.8668 101.128 61.5708 101.192C61.5068 99.144 61.4108 97.16 61.2828 95.24C61.1548 93.32 61.0268 91.336 60.8988 89.288C64.5468 89.224 67.8428 88.968 70.7868 88.52C73.7308 88.008 76.3228 87.208 78.5627 86.12C80.8028 84.968 82.6908 83.464 84.2268 81.608C85.8268 79.752 87.0748 77.416 87.9708 74.6Z" fill="black"/>
</svg>
