<svg width="160" height="240" viewBox="0 0 160 240" fill="none" xmlns="http://www.w3.org/2000/svg">
<rect width="160" height="240" rx="30" fill="white"/>
<path d="M99.375 189.419C109.94 189.419 118.5 180.78 118.5 170.125C118.5 159.469 109.94 150.83 99.375 150.83C95.9095 150.83 92.666 151.774 89.8635 153.403H89.328C94.5478 150.272 98.0566 144.54 98.0566 137.967C98.0566 128.045 90.0854 120 80.25 120C70.4146 120 62.4408 128.045 62.4408 137.967C62.4408 144.54 65.9496 150.272 71.1694 153.403H70.639C67.834 151.774 64.593 150.83 61.125 150.83C50.5629 150.83 42 159.469 42 170.125C42 180.78 50.5629 189.419 61.125 189.419C66.6202 189.419 71.557 187.068 75.048 183.327C74 193.929 62.9227 202.282 52.2 202.282H53.475C51.361 202.282 49.65 204.011 49.65 206.141C49.65 208.271 51.361 210 53.475 210H107.025C109.136 210 110.85 208.271 110.85 206.141C110.85 204.011 109.136 202.282 107.025 202.282H108.3C97.5772 202.282 86.5 193.926 85.4546 183.325C88.9404 187.068 93.8823 189.419 99.375 189.419Z" fill="#31373D"/>
<path d="M99.1578 78.632C99.1578 81.896 98.7738 84.968 98.0058 87.848C97.3018 90.728 96.0218 93.256 94.1658 95.432C92.3738 97.544 89.9098 99.24 86.7738 100.52C83.7018 101.736 79.7978 102.344 75.0618 102.344C70.7098 102.344 66.9658 101.832 63.8298 100.808C60.6938 99.72 58.1018 98.472 56.0538 97.064L61.0458 85.448C62.9018 86.536 64.8858 87.496 66.9978 88.328C69.1098 89.16 71.4138 89.576 73.9098 89.576C77.5578 89.576 80.1818 88.68 81.7818 86.888C83.3818 85.096 84.1818 82.088 84.1818 77.864V34.472H99.1578V78.632Z" fill="black"/>
</svg>
