<svg width="160" height="240" viewBox="0 0 160 240" fill="none" xmlns="http://www.w3.org/2000/svg">
<rect width="160" height="240" rx="30" fill="white"/>
<path d="M99.375 189.419C109.94 189.419 118.5 180.78 118.5 170.125C118.5 159.469 109.94 150.83 99.375 150.83C95.9095 150.83 92.666 151.774 89.8635 153.403H89.328C94.5478 150.272 98.0566 144.54 98.0566 137.967C98.0566 128.045 90.0854 120 80.25 120C70.4146 120 62.4408 128.045 62.4408 137.967C62.4408 144.54 65.9496 150.272 71.1694 153.403H70.639C67.834 151.774 64.593 150.83 61.125 150.83C50.5629 150.83 42 159.469 42 170.125C42 180.78 50.5629 189.419 61.125 189.419C66.6202 189.419 71.557 187.068 75.048 183.327C74 193.929 62.9227 202.282 52.2 202.282H53.475C51.361 202.282 49.65 204.011 49.65 206.141C49.65 208.271 51.361 210 53.475 210H107.025C109.136 210 110.85 208.271 110.85 206.141C110.85 204.011 109.136 202.282 107.025 202.282H108.3C97.5772 202.282 86.5 193.926 85.4546 183.325C88.9404 187.068 93.8823 189.419 99.375 189.419Z" fill="#31373D"/>
<path d="M62.3341 67.688C62.3341 70.952 62.7181 73.896 63.4861 76.52C64.3181 79.144 65.4701 81.416 66.9421 83.336C68.4781 85.192 70.3341 86.632 72.5101 87.656C74.6861 88.68 77.1821 89.192 79.9981 89.192C82.7501 89.192 85.2141 88.68 87.3901 87.656C89.6301 86.632 91.4861 85.192 92.9581 83.336C94.4941 81.416 95.6461 79.144 96.4141 76.52C97.2461 73.896 97.6621 70.952 97.6621 67.688C97.6621 64.424 97.2461 61.48 96.4141 58.856C95.6461 56.168 94.4941 53.896 92.9581 52.04C91.4861 50.12 89.6301 48.648 87.3901 47.624C85.2141 46.6 82.7501 46.088 79.9981 46.088C77.1821 46.088 74.6861 46.632 72.5101 47.72C70.3341 48.744 68.4781 50.216 66.9421 52.136C65.4701 53.992 64.3181 56.264 63.4861 58.952C62.7181 61.576 62.3341 64.488 62.3341 67.688ZM113.118 67.688C113.118 72.36 112.542 76.584 111.39 80.36C110.238 84.072 108.606 87.336 106.494 90.152C104.446 92.968 101.982 95.304 99.1021 97.16C96.2221 99.016 93.0541 100.36 89.5981 101.192C89.9181 102.472 90.6221 103.496 91.7101 104.264C92.7981 105.096 94.1741 105.768 95.8381 106.28C97.5021 106.792 99.4221 107.176 101.598 107.432C103.838 107.688 106.238 107.912 108.798 108.104L105.726 119.048C100.734 118.856 96.4461 118.344 92.8621 117.512C89.3421 116.744 86.3341 115.656 83.8381 114.248C81.4061 112.84 79.4541 111.112 77.9821 109.064C76.5741 107.016 75.4861 104.648 74.7181 101.96C70.7501 101.448 67.0701 100.36 63.6781 98.696C60.2861 96.968 57.3421 94.664 54.8461 91.784C52.3501 88.904 50.3981 85.448 48.9901 81.416C47.5821 77.384 46.8781 72.808 46.8781 67.688C46.8781 61.992 47.7741 57 49.5661 52.712C51.3581 48.36 53.7581 44.712 56.7661 41.768C59.8381 38.824 63.3581 36.616 67.3261 35.144C71.3581 33.672 75.5821 32.936 79.9981 32.936C84.5421 32.936 88.8301 33.672 92.8621 35.144C96.8941 36.616 100.414 38.824 103.422 41.768C106.43 44.712 108.798 48.36 110.526 52.712C112.254 57 113.118 61.992 113.118 67.688Z" fill="black"/>
</svg>
