<svg width="160" height="240" viewBox="0 0 160 240" fill="none" xmlns="http://www.w3.org/2000/svg">
<rect width="160" height="240" rx="30" fill="white"/>
<path d="M99.375 189.419C109.94 189.419 118.5 180.78 118.5 170.125C118.5 159.469 109.94 150.83 99.375 150.83C95.9095 150.83 92.666 151.774 89.8635 153.403H89.328C94.5478 150.272 98.0566 144.54 98.0566 137.967C98.0566 128.045 90.0854 120 80.25 120C70.4146 120 62.4408 128.045 62.4408 137.967C62.4408 144.54 65.9496 150.272 71.1694 153.403H70.639C67.834 151.774 64.593 150.83 61.125 150.83C50.5629 150.83 42 159.469 42 170.125C42 180.78 50.5629 189.419 61.125 189.419C66.6202 189.419 71.557 187.068 75.048 183.327C74 193.929 62.9227 202.282 52.2 202.282H53.475C51.361 202.282 49.65 204.011 49.65 206.141C49.65 208.271 51.361 210 53.475 210H107.025C109.136 210 110.85 208.271 110.85 206.141C110.85 204.011 109.136 202.282 107.025 202.282H108.3C97.5772 202.282 86.5 193.926 85.4546 183.325C88.9404 187.068 93.8823 189.419 99.375 189.419Z" fill="#31373D"/>
<path d="M94.1315 101C92.7875 98.824 91.1875 96.488 89.3315 93.992C87.5395 91.432 85.5555 88.904 83.3795 86.408C81.2675 83.848 79.0595 81.416 76.7555 79.112C74.4515 76.744 72.1475 74.664 69.8435 72.872V101H54.8675V34.472H69.8435V59.624C73.7475 55.528 77.6515 51.272 81.5555 46.856C85.5235 42.376 89.2035 38.248 92.5955 34.472H110.356C105.812 39.848 101.236 45.032 96.6275 50.024C92.0835 55.016 87.2835 60.04 82.2275 65.096C87.5395 69.512 92.6595 74.76 97.5875 80.84C102.58 86.92 107.348 93.64 111.892 101H94.1315Z" fill="black"/>
</svg>
